<svg width="37" height="37" viewBox="0 0 37 37" fill="none" xmlns="http://www.w3.org/2000/svg">
<path d="M23.1246 3.08337C17.9181 3.08556 13.456 6.80591 12.5176 11.9272C16.9991 9.47477 22.6201 11.1197 25.0725 15.6012C26.5865 18.3679 26.5865 21.7154 25.0725 24.4821C30.9328 23.4086 34.8133 17.7876 33.7398 11.9272C32.8011 6.80281 28.3343 3.0814 23.1246 3.08337Z" fill="#C3E8F1"/>
<path d="M10.7913 33.9167C15.0485 33.9167 18.4997 30.4655 18.4997 26.2083C18.4997 21.9511 15.0485 18.5 10.7913 18.5C6.53415 18.5 3.08301 21.9511 3.08301 26.2083C3.08301 30.4655 6.53415 33.9167 10.7913 33.9167Z" fill="#027794"/>
<path d="M16.9586 10.7916C12.2051 10.7921 8.22569 14.3954 7.75488 19.1256C11.6642 17.446 16.195 19.2535 17.8747 23.1629C18.7089 25.1045 18.7089 27.3037 17.8747 29.2454C22.958 28.7399 26.6691 24.2093 26.1636 19.126C25.6932 14.395 21.7129 10.7912 16.9586 10.7916Z" fill="#52A0B4"/>
</svg>
