<svg width="65" height="65" viewBox="0 0 65 65" fill="none" xmlns="http://www.w3.org/2000/svg">
<g clip-path="url(#clip0_202_435)">
<path d="M35.7992 3.38231V8.41687H39.7664C40.9908 8.41687 42.1951 8.73909 43.2584 9.34726L48.4541 12.3116C48.6098 12.4002 48.7763 12.4445 48.9535 12.4445H57.9513C58.7524 12.4445 59.5208 12.7628 60.0873 13.3293C60.6538 13.8958 60.972 14.6641 60.972 15.4653C60.972 16.2664 60.6538 17.0347 60.0873 17.6012C59.5208 18.1677 58.7524 18.486 57.9513 18.486H56.2315L64.7338 37.3837C64.9851 37.9428 65.0603 38.5651 64.9495 39.168C64.8387 39.7708 64.5472 40.3257 64.1136 40.7589L61.9789 38.6243L64.1096 40.7629L64.1055 40.771L64.0975 40.779L64.0733 40.8032L64.0491 40.8234L64.0089 40.8636L63.8276 41.0247C62.9764 41.7363 62.0554 42.3404 61.0646 42.8372C59.1837 43.7796 56.461 44.6657 52.9167 44.6657C50.0954 44.6987 47.3054 44.0726 44.7688 42.8372C43.7799 42.3434 42.8526 41.7351 42.0058 41.0247L41.8246 40.8636L41.7601 40.8032L41.7359 40.779L41.7198 40.7629V40.7589C41.2862 40.3257 40.9947 39.7708 40.8839 39.168C40.7731 38.5651 40.8483 37.9428 41.0996 37.3837L49.606 18.486H48.9535C47.7251 18.486 46.5208 18.1678 45.4575 17.5556L40.2618 14.5913C40.1097 14.5043 39.9376 14.4584 39.7624 14.4584H35.7992V52.721H45.8683C46.6695 52.721 47.4378 53.0393 48.0043 53.6058C48.5708 54.1723 48.8891 54.9406 48.8891 55.7418C48.8891 56.5429 48.5708 57.3113 48.0043 57.8778C47.4378 58.4443 46.6695 58.7625 45.8683 58.7625H19.6886C18.8874 58.7625 18.1191 58.4443 17.5526 57.8778C16.9861 57.3113 16.6678 56.5429 16.6678 55.7418C16.6678 54.9406 16.9861 54.1723 17.5526 53.6058C18.1191 53.0393 18.8874 52.721 19.6886 52.721H29.7577V14.4584H25.7945C25.6193 14.4584 25.4472 14.5043 25.2951 14.5913L20.1034 17.5596C19.0361 18.1638 17.8318 18.486 16.6034 18.486H15.9509L24.4573 37.3837C24.7086 37.9428 24.7838 38.5651 24.673 39.168C24.5622 39.7708 24.2707 40.3257 23.8371 40.7589L21.7024 38.6243L23.833 40.7629L23.829 40.771L23.821 40.779L23.7968 40.8032L23.7323 40.8636L23.5511 41.0247C22.6999 41.7363 21.7789 42.3404 20.7881 42.8372C18.9072 43.7796 16.1845 44.6657 12.6402 44.6657C9.81891 44.6987 7.02888 44.0726 4.49226 42.8372C3.5034 42.3434 2.57604 41.7351 1.72929 41.0247L1.54804 40.8636L1.4836 40.8032L1.45943 40.779L1.44332 40.7629V40.7589C1.00971 40.3257 0.718156 39.7708 0.60737 39.168C0.496584 38.5651 0.571813 37.9428 0.823066 37.3837L9.32947 18.486H7.60563C6.80448 18.486 6.03614 18.1677 5.46965 17.6012C4.90315 17.0347 4.58489 16.2664 4.58489 15.4653C4.58489 14.6641 4.90315 13.8958 5.46965 13.3293C6.03614 12.7628 6.80448 12.4445 7.60563 12.4445H16.6034C16.78 12.4451 16.9536 12.3993 17.1069 12.3116L22.2945 9.34323C23.3618 8.73909 24.5661 8.41687 25.7945 8.41687H29.7577V3.38231C29.7577 2.58116 30.076 1.81282 30.6425 1.24633C31.209 0.679828 31.9773 0.361572 32.7785 0.361572C33.5796 0.361572 34.3479 0.679828 34.9144 1.24633C35.4809 1.81282 35.7992 2.58116 35.7992 3.38231ZM47.6606 37.5247C48.8085 38.0684 50.5525 38.6243 52.9167 38.6243C55.2809 38.6243 57.0249 38.0684 58.1728 37.5247L52.9167 25.8445L47.6606 37.5247ZM7.38411 37.5247C8.53199 38.0684 10.276 38.6243 12.6402 38.6243C15.0044 38.6243 16.7484 38.0684 17.8963 37.5247L12.6402 25.8445L7.38411 37.5247Z" fill="#52A0B4"/>
</g>
<defs>
<clipPath id="clip0_202_435">
<rect width="64.4424" height="64.4424" fill="white" transform="translate(0.557617 0.361572)"/>
</clipPath>
</defs>
</svg>
