<svg width="16" height="23" viewBox="0 0 16 23" fill="none" xmlns="http://www.w3.org/2000/svg">
<path d="M8 22.8571C8 22.8571 0 12.4229 0 8C-1.56548e-08 6.94942 0.206926 5.90914 0.608964 4.93853C1.011 3.96793 1.60028 3.08601 2.34315 2.34315C3.08601 1.60028 3.96793 1.011 4.93853 0.608964C5.90914 0.206926 6.94943 0 8 0C9.05058 0 10.0909 0.206926 11.0615 0.608964C12.0321 1.011 12.914 1.60028 13.6569 2.34315C14.3997 3.08601 14.989 3.96793 15.391 4.93853C15.7931 5.90914 16 6.94942 16 8C16 12.4229 8 22.8571 8 22.8571ZM8 10.2857C8.60621 10.2857 9.18759 10.0449 9.61624 9.61624C10.0449 9.18759 10.2857 8.60621 10.2857 8C10.2857 7.39379 10.0449 6.81241 9.61624 6.38376C9.18759 5.9551 8.60621 5.71429 8 5.71429C7.39379 5.71429 6.81241 5.9551 6.38376 6.38376C5.9551 6.81241 5.71429 7.39379 5.71429 8C5.71429 8.60621 5.9551 9.18759 6.38376 9.61624C6.81241 10.0449 7.39379 10.2857 8 10.2857Z" fill="white"/>
</svg>
