<svg width="669" height="167" viewBox="0 0 669 167" fill="none" xmlns="http://www.w3.org/2000/svg">
<rect x="340.311" y="0.181152" width="328.69" height="117.864" fill="#EBEBEB"/>
<path d="M25.6766 82.8706V41.8939H42.8869C48.0671 41.8939 51.7702 43.371 53.9961 46.3254C56.222 49.2596 57.335 54.6118 57.335 62.3822C57.335 70.1324 56.2119 75.4847 53.9658 78.439C51.7399 81.3934 48.0469 82.8706 42.8869 82.8706H25.6766ZM31.8383 78.5605H41.2478C44.5664 78.5605 47.0452 77.5689 48.6843 75.5858C50.3234 73.6028 51.1429 69.2016 51.1429 62.3822C51.1429 55.5427 50.3234 51.1414 48.6843 49.1786C47.0452 47.1955 44.5664 46.204 41.2478 46.204H31.8383V78.5605ZM77.7289 83.1741C72.144 83.1741 68.1272 81.5553 65.6787 78.3176C63.21 75.0597 61.9757 70.5573 61.9757 64.8105C61.9757 58.7196 63.2404 54.1565 65.7698 51.1212C68.279 48.0657 72.235 46.5379 77.6379 46.5379C83.2026 46.5379 87.189 48.0657 89.597 51.1212C91.9848 54.1768 93.1787 58.7095 93.1787 64.7194C93.1787 65.4277 93.1382 66.0853 93.0573 66.6924H67.2571V62.8679H86.9867C86.8248 58.4566 86.0255 55.3403 84.5888 53.5191C82.9295 51.5765 80.6125 50.6052 77.6379 50.6052C74.7442 50.6052 72.407 51.6271 70.6263 53.6709C68.8254 55.7349 67.9249 59.4481 67.9249 64.8105C67.9249 69.8896 68.795 73.532 70.5353 75.7376C72.2553 77.9837 74.6532 79.1068 77.7289 79.1068V83.1741ZM77.7289 79.1068C79.4894 79.1068 81.0273 78.8134 82.3426 78.2266C83.6579 77.6397 84.6798 76.6381 85.4083 75.2216C86.0963 73.8051 86.6123 72.2065 86.9563 70.4258L92.4806 71.9131C92.1366 74.3818 91.3474 76.4762 90.113 78.1962C88.8584 79.9365 87.2396 81.2012 85.2565 81.9904C83.2735 82.7795 80.7643 83.1741 77.7289 83.1741V79.1068ZM100.107 82.8706V35.2162H106.269V82.8706H100.107ZM128.059 82.8706V41.8939H149.215C153.242 41.8939 155.832 42.8348 156.986 44.7167C158.159 46.5986 158.746 48.7739 158.746 51.2426C158.746 53.7923 158.2 55.9878 157.107 57.8293C156.014 59.6504 154.436 60.6116 152.372 60.7128C154.537 60.8342 156.267 61.846 157.562 63.7481C158.878 65.6503 159.535 68.1089 159.535 71.1239C159.535 74.5437 158.938 77.3565 157.745 79.5621C156.571 81.7678 154.031 82.8706 150.126 82.8706H128.059ZM134.251 78.5605H148.548C150.328 78.5605 151.563 77.8826 152.251 76.5268C152.959 75.1508 153.313 73.1475 153.313 70.5169C153.313 68.0684 152.878 66.1663 152.008 64.8105C151.158 63.4345 149.6 62.7465 147.333 62.7465H134.251V78.5605ZM134.251 58.8916H146.969C149.033 58.8916 150.47 58.2643 151.279 57.0097C152.089 55.7349 152.493 54.0958 152.493 52.0925C152.493 50.2309 152.16 48.784 151.492 47.752C150.824 46.6998 149.549 46.1736 147.667 46.1736H134.251V58.8916ZM166.211 82.8706V46.8718H172.373V82.8706H166.211ZM166.211 37.0373H172.373V42.4706H166.211V37.0373ZM191.656 83.2045C189.794 83.2045 188.104 83.0426 186.587 82.7188C185.089 82.3748 183.784 81.7981 182.671 80.9887C181.578 80.1793 180.739 79.0765 180.152 77.6802C179.585 76.2637 179.302 74.483 179.302 72.3381C179.302 70.274 179.585 68.5642 180.152 67.2084C180.718 65.8324 181.528 64.7498 182.58 63.9606C183.653 63.1512 184.948 62.5745 186.465 62.2305C187.983 61.8865 189.683 61.7145 191.565 61.7145H203.311V59.6808C203.311 57.5561 202.957 55.8462 202.249 54.5511C201.541 53.2358 200.529 52.2746 199.214 51.6676C197.898 51.0605 196.34 50.757 194.539 50.757C192.981 50.757 191.585 51.0302 190.351 51.5765C189.116 52.1229 188.094 53.0031 187.285 54.2172C186.496 55.4111 185.949 57.0097 185.646 59.013L179.636 57.4043C179.96 55.4212 180.557 53.7417 181.427 52.3657C182.317 50.9897 183.41 49.8767 184.705 49.0268C186.02 48.177 187.507 47.5598 189.167 47.1753C190.826 46.7706 192.607 46.5682 194.509 46.5682C197.706 46.5682 200.418 47.0134 202.644 47.9038C204.869 48.7941 206.559 50.2207 207.713 52.1836C208.886 54.1464 209.473 56.7467 209.473 59.9843V82.8706H204.343L203.827 78.3176C203.564 78.8235 203.109 79.3598 202.461 79.9264C201.814 80.4929 200.984 81.0292 199.972 81.5351C198.961 82.0207 197.757 82.4254 196.36 82.7492C194.984 83.0527 193.416 83.2045 191.656 83.2045ZM192.991 79.1675C194.833 79.1675 196.451 78.9449 197.848 78.4998C199.264 78.0343 200.428 77.4475 201.338 76.7393C202.249 76.031 202.876 75.3026 203.22 74.5538V65.1747H192.991C191.959 65.1747 190.988 65.2759 190.077 65.4783C189.167 65.6604 188.367 66.0044 187.679 66.5103C187.012 66.9959 186.486 67.694 186.101 68.6046C185.717 69.5152 185.524 70.6788 185.524 72.0952C185.524 73.5522 185.706 74.736 186.071 75.6466C186.455 76.5572 186.991 77.2654 187.679 77.7713C188.367 78.2772 189.167 78.6414 190.077 78.864C190.988 79.0663 191.959 79.1675 192.991 79.1675ZM216.078 82.8706V46.9021H220.904L222.209 53.853V82.8706H216.078ZM238.63 82.8706V62.3215C238.63 58.153 238.003 55.1987 236.748 53.4584C235.514 51.7182 233.632 50.848 231.102 50.848C228.573 50.848 226.428 51.7789 224.668 53.6405C222.907 55.5022 222.027 57.8495 222.027 60.6825L219.052 58.8006C219.052 55.8462 220.378 53.0638 223.029 50.4534C225.7 47.8431 229.13 46.5379 233.318 46.5379C237.487 46.5379 240.431 47.9442 242.151 50.757C243.891 53.5495 244.761 57.3942 244.761 62.2912V82.8706H238.63ZM265.646 83.1741C260.122 83.1741 256.125 81.6059 253.657 78.4694C251.188 75.3127 249.954 70.7901 249.954 64.9015C249.954 58.7297 251.188 54.1363 253.657 51.1212C256.125 48.0859 260.122 46.5682 265.646 46.5682C270.705 46.5682 274.307 47.8633 276.452 50.4534C278.597 53.0436 279.771 55.917 279.973 59.0737L274.479 60.8949C274.398 57.8798 273.599 55.4617 272.081 53.6405C270.563 51.7991 268.418 50.8784 265.646 50.8784C262.813 50.8784 260.527 51.9003 258.786 53.9441C257.066 55.9878 256.206 59.6403 256.206 64.9015C256.206 69.839 257.077 73.4004 258.817 75.5858C260.577 77.7713 262.854 78.864 265.646 78.864C268.398 78.864 270.533 77.8826 272.051 75.9197C273.589 73.9367 274.398 71.6197 274.479 68.9689L279.973 70.8508C279.771 73.6635 278.587 76.4256 276.422 79.1372C274.277 81.8285 270.685 83.1741 265.646 83.1741ZM300.991 83.1134C295.628 83.1134 291.652 81.6261 289.062 78.6515C286.472 75.6567 285.177 71.0329 285.177 64.7801C285.177 58.5274 286.472 53.9238 289.062 50.9694C291.652 47.9948 295.628 46.5075 300.991 46.5075C306.373 46.5075 310.349 47.9948 312.919 50.9694C315.51 53.9238 316.805 58.5274 316.805 64.7801C316.805 71.0329 315.51 75.6567 312.919 78.6515C310.349 81.6261 306.373 83.1134 300.991 83.1134ZM300.991 78.8943C303.803 78.8943 306.12 77.9129 307.941 75.9501C309.763 73.967 310.673 70.2538 310.673 64.8105C310.673 59.3672 309.763 55.6641 307.941 53.7012C306.12 51.7384 303.803 50.757 300.991 50.757C298.178 50.757 295.861 51.7384 294.04 53.7012C292.219 55.6641 291.308 59.3672 291.308 64.8105C291.308 70.2538 292.219 73.967 294.04 75.9501C295.861 77.9129 298.178 78.8943 300.991 78.8943Z" fill="#EBEBEB"/>
<path d="M364.44 83.042V42.0652H381.651C386.831 42.0652 390.534 43.5424 392.76 46.4968C394.986 49.4309 396.099 54.7832 396.099 62.5536C396.099 70.3038 394.976 75.6561 392.729 78.6104C390.504 81.5648 386.811 83.042 381.651 83.042H364.44ZM370.602 78.7318H380.011C383.33 78.7318 385.809 77.7403 387.448 75.7572C389.087 73.7742 389.907 69.373 389.907 62.5536C389.907 55.714 389.087 51.3128 387.448 49.35C385.809 47.3669 383.33 46.3754 380.011 46.3754H370.602V78.7318ZM416.493 83.2848C411.13 83.2848 407.154 81.7975 404.564 78.8229C401.974 75.8281 400.679 71.2043 400.679 64.9515C400.679 58.6988 401.974 54.0952 404.564 51.1408C407.154 48.1662 411.13 46.6789 416.493 46.6789C421.875 46.6789 425.852 48.1662 428.421 51.1408C431.012 54.0952 432.307 58.6988 432.307 64.9515C432.307 71.2043 431.012 75.8281 428.421 78.8229C425.852 81.7975 421.875 83.2848 416.493 83.2848ZM416.493 79.0657C419.305 79.0657 421.622 78.0843 423.443 76.1215C425.265 74.1384 426.175 70.4252 426.175 64.9819C426.175 59.5385 425.265 55.8355 423.443 53.8726C421.622 51.9098 419.305 50.9284 416.493 50.9284C413.68 50.9284 411.363 51.9098 409.542 53.8726C407.721 55.8355 406.81 59.5385 406.81 64.9819C406.81 70.4252 407.721 74.1384 409.542 76.1215C411.363 78.0843 413.68 79.0657 416.493 79.0657ZM438.231 83.042V47.0735H443.057L444.392 53.0531V83.042H438.231ZM458.355 83.042V61.4609C458.355 57.9399 457.859 55.3296 456.868 53.6298C455.896 51.9098 454.277 51.0498 452.011 51.0498C449.724 51.0498 447.873 51.9806 446.456 53.8423C445.04 55.7039 444.332 58.2941 444.332 61.6127L441.084 59.9736C441.084 56.4729 442.328 53.3971 444.817 50.7462C447.327 48.0752 450.382 46.7396 453.984 46.7396C458.072 46.7396 460.844 48.1055 462.301 50.8373C463.758 53.5488 464.486 56.9484 464.486 61.036V83.042H458.355ZM478.388 83.042V61.4609C478.388 57.9399 477.912 55.3296 476.961 53.6298C476.01 51.9098 474.391 51.0498 472.105 51.0498C469.838 51.0498 467.997 51.9806 466.581 53.8423C465.164 55.7039 464.456 58.2941 464.456 61.6127L461.178 59.9736C461.178 56.5133 462.422 53.4477 464.911 50.7766C467.42 48.0853 470.486 46.7396 474.108 46.7396C478.175 46.7396 480.927 48.1055 482.364 50.8373C483.801 53.5488 484.519 56.9484 484.519 61.036V83.042H478.388ZM492.051 83.042V47.0432H498.213V83.042H492.051ZM492.051 37.2087H498.213V42.642H492.051V37.2087ZM505.992 83.042V47.0735H510.818L512.123 54.0244V83.042H505.992ZM528.544 83.042V62.4929C528.544 58.3244 527.917 55.37 526.662 53.6298C525.428 51.8895 523.546 51.0194 521.017 51.0194C518.487 51.0194 516.342 51.9502 514.582 53.8119C512.821 55.6736 511.941 58.0209 511.941 60.8538L508.966 58.9719C508.966 56.0176 510.292 53.2352 512.943 50.6248C515.614 48.0145 519.044 46.7093 523.232 46.7093C527.401 46.7093 530.345 48.1156 532.065 50.9284C533.805 53.7209 534.675 57.5656 534.675 62.4626V83.042H528.544ZM555.439 97.1259C551.493 97.1259 548.174 96.2355 545.483 94.4548C542.812 92.6943 541.315 89.6387 540.991 85.2881H547.031C547.173 87.1903 547.598 88.7079 548.306 89.8411C549.034 90.9945 550.026 91.8343 551.281 92.3604C552.555 92.9068 554.012 93.1799 555.651 93.1799C558.343 93.1799 560.498 92.4515 562.117 90.9945C563.735 89.5376 564.545 86.735 564.545 82.5867V54.419L566.123 47.0735H570.707V82.01C570.707 85.8547 570.008 88.8799 568.612 91.0856C567.236 93.3115 565.476 94.8696 563.331 95.76C561.186 96.6706 558.555 97.1259 555.439 97.1259ZM553.223 83.2848C548.913 83.2848 545.665 81.7672 543.48 78.7318C541.315 75.6965 540.232 71.1132 540.232 64.9819C540.232 58.8505 541.304 54.2773 543.449 51.2622C545.615 48.2472 548.852 46.7396 553.162 46.7396C557.088 46.7396 560.407 47.7514 563.118 49.7749C565.83 51.7985 567.186 53.8726 567.186 55.9973L564.545 59.0934C564.545 57.0091 563.624 55.1474 561.783 53.5084C559.962 51.8491 557.776 51.0194 555.226 51.0194C552.515 51.0194 550.37 52.011 548.792 53.994C547.213 55.9569 546.424 59.6296 546.424 65.0122C546.424 70.3948 547.213 74.0777 548.792 76.0608C550.37 78.0236 552.515 79.005 555.226 79.005C557.776 79.005 559.962 78.1754 561.783 76.5161C563.624 74.8568 564.545 72.9749 564.545 70.8704L567.246 74.1789C567.246 76.3643 565.891 78.4283 563.179 80.3709C560.467 82.3135 557.149 83.2848 553.223 83.2848ZM592.387 83.2848C587.024 83.2848 583.048 81.7975 580.458 78.8229C577.868 75.8281 576.573 71.2043 576.573 64.9515C576.573 58.6988 577.868 54.0952 580.458 51.1408C583.048 48.1662 587.024 46.6789 592.387 46.6789C597.769 46.6789 601.746 48.1662 604.316 51.1408C606.906 54.0952 608.201 58.6988 608.201 64.9515C608.201 71.2043 606.906 75.8281 604.316 78.8229C601.746 81.7975 597.769 83.2848 592.387 83.2848ZM592.387 79.0657C595.199 79.0657 597.516 78.0843 599.338 76.1215C601.159 74.1384 602.069 70.4252 602.069 64.9819C602.069 59.5385 601.159 55.8355 599.338 53.8726C597.516 51.9098 595.199 50.9284 592.387 50.9284C589.574 50.9284 587.257 51.9098 585.436 53.8726C583.615 55.8355 582.704 59.5385 582.704 64.9819C582.704 70.4252 583.615 74.1384 585.436 76.1215C587.257 78.0843 589.574 79.0657 592.387 79.0657ZM628.907 83.2848C624.576 83.2848 621.076 82.5058 618.405 80.9476C615.734 79.3895 614.084 76.597 613.457 72.5702L618.89 70.7186C619.234 73.7539 620.266 75.9292 621.986 77.2445C623.727 78.5598 626.064 79.2175 628.998 79.2175C631.77 79.2175 633.844 78.7318 635.22 77.7605C636.616 76.769 637.315 75.4739 637.315 73.8753C637.315 71.5887 636.252 70.061 634.128 69.292C632.003 68.5028 629.332 67.7541 626.114 67.0459C622.452 66.2567 619.467 65.1336 617.16 63.6767C614.874 62.1995 613.73 59.751 613.73 56.3312C613.73 53.215 614.995 50.8474 617.524 49.2286C620.054 47.5895 623.524 46.77 627.935 46.77C632.327 46.77 635.787 47.5693 638.316 49.1679C640.866 50.7462 642.434 53.3768 643.021 57.0597L637.588 58.9112C637.244 56.2604 636.242 54.247 634.583 52.871C632.944 51.495 630.708 50.8069 627.875 50.8069C625.143 50.8069 623.109 51.3027 621.774 52.2943C620.459 53.2858 619.801 54.6213 619.801 56.3009C619.801 58.4054 620.803 59.8421 622.806 60.611C624.829 61.38 627.389 62.1186 630.485 62.8268C634.148 63.5755 637.213 64.6379 639.682 66.0139C642.171 67.3696 643.416 69.8485 643.416 73.4504C643.416 76.769 642.181 79.2377 639.713 80.8566C637.244 82.4754 633.642 83.2848 628.907 83.2848Z" fill="#4D4D4D"/>
<rect x="1.44539" y="1.62654" width="339.079" height="114.973" stroke="#EBEBEB" stroke-width="2.89078"/>
<path d="M137.966 159.556C136.713 159.556 135.672 159.373 134.844 159.006C134.015 158.64 133.398 158.255 132.994 157.85C132.608 157.426 132.415 157.176 132.415 157.099L133.138 155.971C133.138 156.029 133.321 156.251 133.687 156.636C134.054 157.002 134.584 157.349 135.277 157.677C135.99 157.985 136.858 158.139 137.879 158.139C139.093 158.139 140.047 157.792 140.741 157.099C141.435 156.385 141.782 155.509 141.782 154.468C141.782 153.755 141.608 153.157 141.261 152.676C140.914 152.194 140.481 151.808 139.96 151.519C139.459 151.23 138.775 150.903 137.908 150.536C136.906 150.132 136.096 149.746 135.48 149.38C134.863 149.014 134.343 148.513 133.919 147.877C133.495 147.222 133.283 146.393 133.283 145.391C133.283 143.811 133.784 142.558 134.786 141.633C135.788 140.689 137.127 140.216 138.804 140.216C139.633 140.216 140.375 140.342 141.03 140.592C141.705 140.823 142.244 141.084 142.649 141.373C143.054 141.643 143.256 141.797 143.256 141.835L142.967 143.107C142.967 143.069 142.774 142.914 142.389 142.645C142.003 142.375 141.512 142.124 140.914 141.893C140.317 141.662 139.652 141.546 138.92 141.546C137.841 141.546 136.993 141.845 136.376 142.442C135.759 143.04 135.451 143.849 135.451 144.871C135.451 145.584 135.615 146.181 135.942 146.663C136.289 147.125 136.713 147.501 137.214 147.79C137.735 148.079 138.419 148.397 139.267 148.744C140.288 149.168 141.107 149.573 141.724 149.958C142.34 150.324 142.861 150.845 143.285 151.519C143.728 152.194 143.95 153.061 143.95 154.121C143.95 155.181 143.699 156.125 143.198 156.954C142.716 157.763 142.023 158.399 141.117 158.862C140.211 159.324 139.161 159.556 137.966 159.556ZM158.497 159.556C156.82 159.556 155.375 159.17 154.161 158.399C152.966 157.628 152.051 156.52 151.415 155.075C150.779 153.61 150.461 151.885 150.461 149.9C150.461 147.915 150.779 146.2 151.415 144.755C152.051 143.29 152.966 142.172 154.161 141.402C155.375 140.611 156.82 140.216 158.497 140.216C160.174 140.216 161.619 140.611 162.833 141.402C164.047 142.172 164.972 143.29 165.608 144.755C166.264 146.2 166.591 147.915 166.591 149.9C166.591 151.885 166.264 153.61 165.608 155.075C164.972 156.52 164.047 157.628 162.833 158.399C161.619 159.17 160.174 159.556 158.497 159.556ZM158.497 158.168C160.347 158.168 161.764 157.465 162.747 156.058C163.749 154.651 164.25 152.599 164.25 149.9C164.25 147.222 163.749 145.169 162.747 143.743C161.764 142.317 160.347 141.604 158.497 141.604C156.666 141.604 155.259 142.317 154.277 143.743C153.294 145.169 152.802 147.222 152.802 149.9C152.802 152.599 153.284 154.651 154.248 156.058C155.23 157.465 156.647 158.168 158.497 158.168ZM181.372 159.556C178.77 159.556 176.746 158.717 175.301 157.041C173.856 155.345 173.133 153.013 173.133 150.045C173.133 148.06 173.461 146.326 174.116 144.842C174.79 143.358 175.735 142.221 176.949 141.431C178.182 140.621 179.608 140.216 181.227 140.216C182.114 140.216 182.962 140.332 183.771 140.563C184.6 140.795 185.303 141.055 185.881 141.344C186.459 141.633 186.749 141.787 186.749 141.806L186.488 143.194C186.488 143.175 186.209 143.03 185.65 142.76C185.091 142.49 184.436 142.24 183.684 142.009C182.952 141.777 182.21 141.662 181.458 141.662C179.589 141.662 178.124 142.375 177.064 143.801C176.004 145.208 175.475 147.27 175.475 149.987C175.475 152.666 176.014 154.69 177.093 156.058C178.173 157.426 179.685 158.11 181.632 158.11C182.653 158.11 183.549 157.898 184.32 157.474C185.091 157.05 185.698 156.597 186.141 156.116C186.604 155.634 186.835 155.354 186.835 155.277L187.645 156.202C187.645 156.299 187.394 156.636 186.893 157.214C186.392 157.773 185.669 158.303 184.725 158.804C183.8 159.305 182.682 159.556 181.372 159.556ZM194.707 159.267V140.477H196.904V159.267H194.707ZM206.116 159.267V140.477H216.233V141.864H208.313V149.091H215.568V150.421H208.313V157.879H216.869V159.267H206.116ZM224.525 140.477H230.249C232.947 140.477 235.038 141.296 236.522 142.934C238.025 144.553 238.777 146.884 238.777 149.929C238.777 152.955 238.035 155.268 236.551 156.867C235.086 158.467 232.985 159.267 230.249 159.267H224.525V140.477ZM230.278 157.879C234.363 157.879 236.406 155.229 236.406 149.929C236.406 144.553 234.354 141.864 230.249 141.864H226.722V157.879H230.278ZM244.129 159.267L250.459 140.477H253.032L259.247 159.267H256.964L254.998 153.485H247.626L245.661 159.267H244.129ZM248.031 152.3H254.622L251.356 142.153L248.031 152.3ZM266.369 140.477H272.093C274.791 140.477 276.882 141.296 278.366 142.934C279.869 144.553 280.621 146.884 280.621 149.929C280.621 152.955 279.879 155.268 278.395 156.867C276.93 158.467 274.829 159.267 272.093 159.267H266.369V140.477ZM272.122 157.879C276.207 157.879 278.25 155.229 278.25 149.929C278.25 144.553 276.198 141.864 272.093 141.864H268.566V157.879H272.122ZM288.448 159.267V140.477H298.566V141.864H290.645V149.091H297.901V150.421H290.645V157.879H299.202V159.267H288.448ZM317.363 140.477H323.087C325.785 140.477 327.876 141.296 329.36 142.934C330.863 144.553 331.615 146.884 331.615 149.929C331.615 152.955 330.873 155.268 329.389 156.867C327.924 158.467 325.823 159.267 323.087 159.267H317.363V140.477ZM323.116 157.879C327.201 157.879 329.244 155.229 329.244 149.929C329.244 144.553 327.192 141.864 323.087 141.864H319.56V157.879H323.116ZM339.442 159.267V140.477H349.56V141.864H341.639V149.091H348.895V150.421H341.639V157.879H350.196V159.267H339.442ZM366.305 159.267L372.635 140.477H375.208L381.423 159.267H379.14L377.174 153.485H369.802L367.837 159.267H366.305ZM370.207 152.3H376.798L373.531 142.153L370.207 152.3ZM388.545 140.477H394.269C396.967 140.477 399.058 141.296 400.542 142.934C402.045 144.553 402.797 146.884 402.797 149.929C402.797 152.955 402.055 155.268 400.571 156.867C399.106 158.467 397.005 159.267 394.269 159.267H388.545V140.477ZM394.298 157.879C398.383 157.879 400.426 155.229 400.426 149.929C400.426 144.553 398.374 141.864 394.269 141.864H390.742V157.879H394.298ZM414.046 159.267L407.917 140.477H410.201L415.665 157.648L421.215 140.477H422.834L416.59 159.267H414.046ZM436.079 159.556C434.403 159.556 432.957 159.17 431.743 158.399C430.548 157.628 429.633 156.52 428.997 155.075C428.361 153.61 428.043 151.885 428.043 149.9C428.043 147.915 428.361 146.2 428.997 144.755C429.633 143.29 430.548 142.172 431.743 141.402C432.957 140.611 434.403 140.216 436.079 140.216C437.756 140.216 439.201 140.611 440.415 141.402C441.63 142.172 442.555 143.29 443.191 144.755C443.846 146.2 444.173 147.915 444.173 149.9C444.173 151.885 443.846 153.61 443.191 155.075C442.555 156.52 441.63 157.628 440.415 158.399C439.201 159.17 437.756 159.556 436.079 159.556ZM436.079 158.168C437.929 158.168 439.346 157.465 440.329 156.058C441.331 154.651 441.832 152.599 441.832 149.9C441.832 147.222 441.331 145.169 440.329 143.743C439.346 142.317 437.929 141.604 436.079 141.604C434.248 141.604 432.842 142.317 431.859 143.743C430.876 145.169 430.384 147.222 430.384 149.9C430.384 152.599 430.866 154.651 431.83 156.058C432.813 157.465 434.229 158.168 436.079 158.168ZM458.954 159.556C456.352 159.556 454.329 158.717 452.883 157.041C451.438 155.345 450.715 153.013 450.715 150.045C450.715 148.06 451.043 146.326 451.698 144.842C452.373 143.358 453.317 142.221 454.531 141.431C455.764 140.621 457.191 140.216 458.809 140.216C459.696 140.216 460.544 140.332 461.353 140.563C462.182 140.795 462.885 141.055 463.464 141.344C464.042 141.633 464.331 141.787 464.331 141.806L464.071 143.194C464.071 143.175 463.791 143.03 463.232 142.76C462.673 142.49 462.018 142.24 461.267 142.009C460.534 141.777 459.792 141.662 459.041 141.662C457.171 141.662 455.707 142.375 454.647 143.801C453.587 145.208 453.057 147.27 453.057 149.987C453.057 152.666 453.596 154.69 454.676 156.058C455.755 157.426 457.268 158.11 459.214 158.11C460.235 158.11 461.132 157.898 461.903 157.474C462.673 157.05 463.28 156.597 463.724 156.116C464.186 155.634 464.417 155.354 464.417 155.277L465.227 156.202C465.227 156.299 464.976 156.636 464.475 157.214C463.974 157.773 463.252 158.303 462.307 158.804C461.382 159.305 460.264 159.556 458.954 159.556ZM470.237 159.267L476.568 140.477H479.141L485.356 159.267H483.072L481.106 153.485H473.735L471.769 159.267H470.237ZM474.14 152.3H480.73L477.464 142.153L474.14 152.3ZM498.511 159.556C495.91 159.556 493.886 158.717 492.441 157.041C490.995 155.345 490.273 153.013 490.273 150.045C490.273 148.06 490.6 146.326 491.255 144.842C491.93 143.358 492.874 142.221 494.088 141.431C495.322 140.621 496.748 140.216 498.367 140.216C499.253 140.216 500.101 140.332 500.911 140.563C501.739 140.795 502.443 141.055 503.021 141.344C503.599 141.633 503.888 141.787 503.888 141.806L503.628 143.194C503.628 143.175 503.348 143.03 502.79 142.76C502.231 142.49 501.575 142.24 500.824 142.009C500.092 141.777 499.35 141.662 498.598 141.662C496.729 141.662 495.264 142.375 494.204 143.801C493.144 145.208 492.614 147.27 492.614 149.987C492.614 152.666 493.154 154.69 494.233 156.058C495.312 157.426 496.825 158.11 498.771 158.11C499.793 158.11 500.689 157.898 501.46 157.474C502.231 157.05 502.838 156.597 503.281 156.116C503.744 155.634 503.975 155.354 503.975 155.277L504.784 156.202C504.784 156.299 504.534 156.636 504.033 157.214C503.532 157.773 502.809 158.303 501.865 158.804C500.939 159.305 499.822 159.556 498.511 159.556ZM511.847 159.267V140.477H514.044V159.267H511.847ZM521.203 159.267L527.533 140.477H530.106L536.321 159.267H534.038L532.072 153.485H524.701L522.735 159.267H521.203ZM525.105 152.3H531.696L528.43 142.153L525.105 152.3Z" fill="#F5F5F5"/>
</svg>
