<svg width="33" height="33" viewBox="0 0 33 33" fill="none" xmlns="http://www.w3.org/2000/svg">
<path d="M5.3678 26.8418C4.62965 26.8418 3.99796 26.5792 3.47275 26.054C2.94754 25.5288 2.68449 24.8967 2.68359 24.1576V8.05237C2.68359 7.31422 2.94665 6.68253 3.47275 6.15732C3.99886 5.63211 4.63054 5.36906 5.3678 5.36816H26.8415C27.5796 5.36816 28.2118 5.63122 28.7379 6.15732C29.264 6.68343 29.5266 7.31511 29.5257 8.05237V24.1576C29.5257 24.8958 29.2631 25.5279 28.7379 26.054C28.2127 26.5801 27.5805 26.8427 26.8415 26.8418H5.3678ZM16.1046 17.4471L26.8415 10.7366V8.05237L16.1046 14.7629L5.3678 8.05237V10.7366L16.1046 17.4471Z" fill="#686868"/>
</svg>
