<svg width="40" height="40" viewBox="0 0 40 40" fill="none" xmlns="http://www.w3.org/2000/svg">
<path d="M20.0474 19.1212C18.9449 19.1212 17.8876 18.6832 17.108 17.9037C16.3285 17.1241 15.8905 16.0668 15.8905 14.9643C15.8905 13.8619 16.3285 12.8046 17.108 12.025C17.8876 11.2455 18.9449 10.8075 20.0474 10.8075C21.1498 10.8075 22.2071 11.2455 22.9867 12.025C23.7662 12.8046 24.2042 13.8619 24.2042 14.9643C24.2042 15.5102 24.0967 16.0508 23.8878 16.5551C23.6789 17.0594 23.3727 17.5177 22.9867 17.9037C22.6007 18.2897 22.1424 18.5959 21.6381 18.8048C21.1338 19.0137 20.5932 19.1212 20.0474 19.1212ZM20.0474 3.3252C16.9605 3.3252 14 4.55146 11.8172 6.73422C9.63447 8.91699 8.4082 11.8775 8.4082 14.9643C8.4082 23.6937 20.0474 36.5799 20.0474 36.5799C20.0474 36.5799 31.6865 23.6937 31.6865 14.9643C31.6865 11.8775 30.4602 8.91699 28.2775 6.73422C26.0947 4.55146 23.1342 3.3252 20.0474 3.3252Z" fill="#686868"/>
</svg>
