<svg width="32" height="32" viewBox="0 0 32 32" fill="none" xmlns="http://www.w3.org/2000/svg">
<path d="M9.103 14.1973C10.9977 17.9209 14.0504 20.9604 17.7741 22.8683L20.6688 19.9736C21.0241 19.6183 21.5504 19.4999 22.0109 19.6578C23.4846 20.1446 25.0767 20.4078 26.7083 20.4078C27.4319 20.4078 28.0241 20.9999 28.0241 21.7236V26.3157C28.0241 27.0394 27.4319 27.6315 26.7083 27.6315C14.353 27.6315 4.33984 17.6183 4.33984 5.26306C4.33984 4.53937 4.93195 3.94727 5.65563 3.94727H10.2609C10.9846 3.94727 11.5767 4.53937 11.5767 5.26306C11.5767 6.90779 11.8398 8.48674 12.3267 9.96042C12.4714 10.4209 12.3662 10.9341 11.9977 11.3025L9.103 14.1973Z" fill="#686868"/>
</svg>
