<svg width="64" height="65" viewBox="0 0 64 65" fill="none" xmlns="http://www.w3.org/2000/svg">
<path d="M61 44.1724H52.22L50.3325 55.1024L44.235 44.1724H21.125V37.9224H44.875V18.2974H61V44.1724ZM42.875 10.0474V35.9224H19.7662L13.6675 46.8561L11.7787 35.9224H3V10.0474H42.875ZM17.0905 27.4904C17.0905 26.223 15.5584 25.5886 14.6624 26.4846C13.7664 27.3806 14.4007 28.9129 15.6681 28.9129C16.4537 28.9129 17.0906 28.276 17.0906 27.4904H17.0905ZM24.7086 27.4904C24.7001 26.2254 23.1686 25.6001 22.2771 26.4975C21.3857 27.395 22.0212 28.9224 23.2862 28.9224C24.0755 28.9224 24.7139 28.2797 24.7086 27.4904ZM32.3267 27.4904C32.3267 26.223 30.7946 25.5886 29.8986 26.4846C29.0026 27.3806 29.637 28.9129 30.9044 28.9129C31.6899 28.9129 32.3267 28.276 32.3267 27.4904Z" fill="#52A0B4"/>
</svg>
