<svg width="65" height="65" viewBox="0 0 65 65" fill="none" xmlns="http://www.w3.org/2000/svg">
<path d="M32.2211 26.8512C35.0697 26.8512 37.8015 25.7196 39.8157 23.7054C41.83 21.6912 42.9615 18.9593 42.9615 16.1108C42.9615 13.2622 41.83 10.5304 39.8157 8.51615C37.8015 6.50194 35.0697 5.37036 32.2211 5.37036C29.3726 5.37036 26.6407 6.50194 24.6265 8.51615C22.6123 10.5304 21.4807 13.2622 21.4807 16.1108C21.4807 18.9593 22.6123 21.6912 24.6265 23.7054C26.6407 25.7196 29.3726 26.8512 32.2211 26.8512ZM14.768 34.9065C16.5483 34.9065 18.2557 34.1992 19.5146 32.9404C20.7735 31.6815 21.4807 29.9741 21.4807 28.1937C21.4807 26.4134 20.7735 24.706 19.5146 23.4471C18.2557 22.1882 16.5483 21.481 14.768 21.481C12.9876 21.481 11.2802 22.1882 10.0213 23.4471C8.76245 24.706 8.05522 26.4134 8.05522 28.1937C8.05522 29.9741 8.76245 31.6815 10.0213 32.9404C11.2802 34.1992 12.9876 34.9065 14.768 34.9065ZM56.387 28.1937C56.387 29.9741 55.6798 31.6815 54.4209 32.9404C53.162 34.1992 51.4546 34.9065 49.6743 34.9065C47.8939 34.9065 46.1865 34.1992 44.9276 32.9404C43.6688 31.6815 42.9615 29.9741 42.9615 28.1937C42.9615 26.4134 43.6688 24.706 44.9276 23.4471C46.1865 22.1882 47.8939 21.481 49.6743 21.481C51.4546 21.481 53.162 22.1882 54.4209 23.4471C55.6798 24.706 56.387 26.4134 56.387 28.1937ZM32.2211 29.5363C35.7818 29.5363 39.1966 30.9507 41.7144 33.4685C44.2322 35.9863 45.6466 39.4011 45.6466 42.9618V59.0724H18.7956V42.9618C18.7956 39.4011 20.2101 35.9863 22.7279 33.4685C25.2456 30.9507 28.6605 29.5363 32.2211 29.5363ZM13.4254 42.9618C13.4254 41.101 13.6939 39.3047 14.1987 37.6077L13.7423 37.6453C11.4408 37.898 9.31363 38.9913 7.76862 40.7157C6.22361 42.4401 5.36952 44.6741 5.37012 46.9894V59.0724H13.4254V42.9618ZM59.0721 59.0724V46.9894C59.0724 44.5953 58.159 42.2913 56.5183 40.5478C54.8775 38.8043 52.6332 37.7527 50.2435 37.6077C50.7456 39.3047 51.0168 41.101 51.0168 42.9618V59.0724H59.0721Z" fill="#52A0B4"/>
</svg>
