<svg width="245" height="69" viewBox="0 0 245 69" fill="none" xmlns="http://www.w3.org/2000/svg">
<rect x="141.024" width="103.976" height="49" fill="#333333"/>
<path d="M10.6156 34.3414V17.4005H17.7308C19.8641 17.4005 21.3908 18.0112 22.3111 19.2326C23.2397 20.4457 23.704 22.6585 23.704 25.8709C23.704 29.0751 23.2397 31.2878 22.3111 32.5092C21.3908 33.7307 19.8641 34.3414 17.7308 34.3414H10.6156ZM13.163 32.5594H17.0406C18.421 32.5594 19.45 32.1537 20.1276 31.3422C20.8052 30.5224 21.144 28.6986 21.144 25.8709C21.144 23.0433 20.8052 21.2237 20.1276 20.4122C19.45 19.5924 18.421 19.1824 17.0406 19.1824H13.163V32.5594ZM32.1354 34.4669C29.8264 34.4669 28.1616 33.7976 27.141 32.4591C26.1287 31.1205 25.6226 29.2591 25.6226 26.8748C25.6226 24.3651 26.1413 22.4828 27.1786 21.2279C28.216 19.9646 29.8557 19.333 32.0978 19.333C34.3984 19.333 36.0423 19.9646 37.0294 21.2279C38.025 22.4828 38.5227 24.3525 38.5227 26.8372C38.5227 27.13 38.506 27.4019 38.4725 27.6529H27.8061V26.0717H36.1385L36.0004 26.3478C36.0004 24.4069 35.6574 23.0349 34.9714 22.2318C34.2854 21.4203 33.3275 21.0146 32.0978 21.0146C30.9014 21.0146 29.931 21.437 29.1864 22.282C28.4503 23.1269 28.0822 24.6579 28.0822 26.8748C28.0822 28.9747 28.4377 30.4889 29.1488 31.4175C29.8683 32.3377 30.8638 32.7979 32.1354 32.7979V34.4669ZM32.1354 32.7979C32.8632 32.7979 33.4949 32.6766 34.0303 32.434C34.5741 32.183 34.9923 31.7647 35.2852 31.1791C35.5863 30.5935 35.808 29.9367 35.9502 29.2089L38.2341 29.8238C38.0919 30.8444 37.7614 31.7103 37.2428 32.4214C36.7241 33.1325 36.0548 33.6512 35.235 33.9775C34.4235 34.3037 33.3903 34.4669 32.1354 34.4669V32.7979ZM41.3627 34.3414V14.6398H43.8975V34.3414H41.3627ZM52.8942 34.3414V17.4005H61.6407C63.3055 17.4005 64.3764 17.7895 64.8532 18.5676C65.3301 19.3456 65.5685 20.2491 65.5685 21.2781C65.5685 22.3322 65.3426 23.2357 64.8909 23.9886C64.4391 24.7416 63.7866 25.1389 62.9333 25.1808C63.8368 25.231 64.5562 25.6492 65.0916 26.4356C65.6354 27.222 65.9073 28.2427 65.9073 29.4975C65.9073 30.9114 65.6605 32.0742 65.1669 32.9861C64.6817 33.8896 63.6276 34.3414 62.0046 34.3414H52.8942ZM55.4542 32.5594H61.3647C62.0925 32.5594 62.6028 32.2792 62.8956 31.7187C63.1884 31.1498 63.3348 30.3258 63.3348 29.2466C63.3348 28.2343 63.155 27.4437 62.7952 26.8748C62.4355 26.306 61.7913 26.0215 60.8627 26.0215H55.4542V32.5594ZM55.4542 24.4278H60.7121C61.5654 24.4278 62.1552 24.1685 62.4815 23.6498C62.8161 23.1228 62.9835 22.4493 62.9835 21.6295C62.9835 20.8514 62.8454 20.2491 62.5693 19.8224C62.3016 19.3874 61.7788 19.1699 61.0007 19.1699H55.4542V24.4278ZM68.6428 34.3414V19.4585H71.1902V34.3414H68.6428ZM68.6428 15.3927H71.1902V17.6515H68.6428V15.3927ZM79.2124 34.4794C78.6769 34.4794 78.1541 34.4418 77.6438 34.3665C77.1418 34.2995 76.6733 34.1741 76.2383 33.99C75.8033 33.806 75.4184 33.5466 75.0838 33.212C74.7575 32.869 74.5024 32.434 74.3183 31.9069C74.1343 31.3799 74.0423 30.7399 74.0423 29.9869C74.0423 29.2591 74.1343 28.64 74.3183 28.1297C74.5024 27.6194 74.7534 27.2011 75.0713 26.8748C75.3975 26.5402 75.774 26.2809 76.2007 26.0968C76.6357 25.9128 77.1 25.7873 77.5936 25.7204C78.0872 25.6451 78.5975 25.6074 79.1245 25.6074H83.9809V24.7666C83.9809 23.8715 83.8261 23.1562 83.5166 22.6208C83.2154 22.077 82.7888 21.6838 82.2366 21.4412C81.6928 21.1986 81.0612 21.0773 80.3417 21.0773C79.6808 21.0773 79.0952 21.1902 78.5849 21.4161C78.0746 21.642 77.6563 22.0059 77.33 22.5079C77.0038 23.0098 76.7863 23.6707 76.6775 24.4906L74.1928 23.8255C74.31 23.014 74.5358 22.3238 74.8705 21.7549C75.2051 21.1861 75.6401 20.7259 76.1756 20.3746C76.711 20.0148 77.3259 19.7513 78.0202 19.584C78.723 19.4167 79.4926 19.333 80.3292 19.333C81.6175 19.333 82.7218 19.5129 83.6421 19.8726C84.5707 20.2324 85.2818 20.818 85.7754 21.6295C86.2773 22.4326 86.5283 23.516 86.5283 24.8796V34.3414H84.395L84.1817 32.4591C84.098 32.6682 83.9265 32.8899 83.6672 33.1241C83.4162 33.3584 83.0816 33.5801 82.6633 33.7892C82.2533 33.9984 81.7598 34.1657 81.1825 34.2912C80.6053 34.4167 79.9486 34.4794 79.2124 34.4794ZM79.7645 32.8481C80.325 32.8481 80.8437 32.7937 81.3206 32.6849C81.7974 32.5762 82.2199 32.4298 82.588 32.2457C82.9561 32.0533 83.2572 31.84 83.4915 31.6057C83.7341 31.3631 83.8972 31.1121 83.9809 30.8528L84.0311 27.0631H79.7018C79.2918 27.0631 78.9028 27.1007 78.5347 27.176C78.1666 27.2513 77.8362 27.3893 77.5434 27.5901C77.2589 27.7909 77.0331 28.0795 76.8657 28.456C76.7068 28.8325 76.6273 29.3219 76.6273 29.9242C76.6273 30.5265 76.711 31.0201 76.8783 31.405C77.0456 31.7814 77.2757 32.0742 77.5685 32.2834C77.8696 32.4925 78.2085 32.6389 78.5849 32.7226C78.9614 32.8062 79.3546 32.8481 79.7645 32.8481ZM89.2588 34.3414V19.4711H91.2415L91.7937 22.3573V34.3414H89.2588ZM98.5826 34.3414V25.8584C98.5826 24.1267 98.3232 22.9011 97.8046 22.1816C97.2942 21.4621 96.5162 21.1024 95.4705 21.1024C94.4164 21.1024 93.5254 21.4914 92.7976 22.2694C92.0781 23.0391 91.7184 24.0095 91.7184 25.1808L90.4886 24.3902C90.4886 23.1771 91.0366 22.031 92.1325 20.9518C93.2368 19.8643 94.6548 19.3205 96.3865 19.3205C98.1099 19.3205 99.3271 19.9019 100.038 21.0648C100.758 22.2192 101.117 23.8088 101.117 25.8333V34.3414H98.5826ZM109.727 34.4669C107.443 34.4669 105.791 33.8185 104.77 32.5218C103.75 31.2167 103.24 29.3511 103.24 26.925C103.24 24.3651 103.75 22.4619 104.77 21.2153C105.791 19.9688 107.443 19.3456 109.727 19.3456C111.819 19.3456 113.304 19.881 114.182 20.9518C115.069 22.0143 115.554 23.1981 115.638 24.5031L113.366 25.2561C113.333 24.0095 113.003 23.0098 112.375 22.2569C111.756 21.504 110.873 21.1275 109.727 21.1275C108.556 21.1275 107.611 21.55 106.891 22.3949C106.18 23.2399 105.825 24.7499 105.825 26.925C105.825 28.9579 106.184 30.4303 106.904 31.3422C107.623 32.2457 108.564 32.6975 109.727 32.6975C110.865 32.6975 111.748 32.2917 112.375 31.4802C113.003 30.6604 113.333 29.6983 113.366 28.594L115.638 29.3721C115.554 30.5349 115.069 31.6768 114.182 32.7979C113.295 33.9105 111.81 34.4669 109.727 34.4669ZM124.315 34.4543C122.098 34.4543 120.45 33.8352 119.371 32.5971C118.3 31.3589 117.765 29.4473 117.765 26.8623C117.765 24.2772 118.3 22.374 119.371 21.1526C120.45 19.9312 122.098 19.3205 124.315 19.3205C126.532 19.3205 128.176 19.9312 129.247 21.1526C130.318 22.374 130.853 24.2772 130.853 26.8623C130.853 29.4473 130.318 31.3589 129.247 32.5971C128.176 33.8352 126.532 34.4543 124.315 34.4543ZM124.315 32.6975C125.478 32.6975 126.436 32.2917 127.189 31.4802C127.942 30.6604 128.318 29.1253 128.318 26.8748C128.318 24.6328 127.942 23.106 127.189 22.2945C126.436 21.4747 125.478 21.0648 124.315 21.0648C123.152 21.0648 122.194 21.4747 121.441 22.2945C120.688 23.106 120.312 24.6328 120.312 26.8748C120.312 29.1253 120.688 30.6604 121.441 31.4802C122.194 32.2917 123.152 32.6975 124.315 32.6975Z" fill="white"/>
<path d="M156.793 34.4543C154.284 34.4543 152.552 33.9524 151.598 32.9485C150.653 31.9446 150.18 30.3174 150.18 28.067H152.753C152.753 29.9828 153.096 31.2335 153.782 31.8191C154.468 32.3963 155.467 32.6849 156.781 32.6849C158.086 32.6849 159.086 32.4423 159.78 31.9571C160.483 31.4719 160.834 30.8152 160.834 29.9869C160.834 28.9747 160.407 28.2678 159.554 27.8662C158.701 27.4646 157.5 27.0756 155.953 26.6992C153.886 26.1888 152.41 25.62 151.523 24.9925C150.636 24.3651 150.193 23.3486 150.193 21.9432C150.193 20.6548 150.682 19.5547 151.661 18.6428C152.64 17.7226 154.342 17.2625 156.768 17.2625C159.245 17.2625 160.96 17.777 161.913 18.806C162.875 19.8266 163.356 21.4078 163.356 23.5494H160.784C160.784 21.6838 160.428 20.4666 159.717 19.8977C159.015 19.3205 158.023 19.0319 156.743 19.0319C155.438 19.0319 154.434 19.2786 153.732 19.7722C153.029 20.2575 152.677 20.8891 152.677 21.6671C152.677 22.6459 153.104 23.3445 153.957 23.7627C154.819 24.181 156.011 24.5742 157.534 24.9423C159.65 25.461 161.152 26.0173 162.039 26.6113C162.926 27.1969 163.369 28.205 163.369 29.6356C163.369 30.9908 162.888 32.1328 161.926 33.0614C160.964 33.99 159.253 34.4543 156.793 34.4543ZM170.757 34.4794C170.222 34.4794 169.699 34.4418 169.188 34.3665C168.687 34.2995 168.218 34.1741 167.783 33.99C167.348 33.806 166.963 33.5466 166.629 33.212C166.302 32.869 166.047 32.434 165.863 31.9069C165.679 31.3799 165.587 30.7399 165.587 29.9869C165.587 29.2591 165.679 28.64 165.863 28.1297C166.047 27.6194 166.298 27.2011 166.616 26.8748C166.942 26.5402 167.319 26.2809 167.745 26.0968C168.18 25.9128 168.645 25.7873 169.138 25.7204C169.632 25.6451 170.142 25.6074 170.669 25.6074H175.526V24.7666C175.526 23.8715 175.371 23.1562 175.061 22.6208C174.76 22.077 174.333 21.6838 173.781 21.4412C173.238 21.1986 172.606 21.0773 171.886 21.0773C171.226 21.0773 170.64 21.1902 170.13 21.4161C169.619 21.642 169.201 22.0059 168.875 22.5079C168.549 23.0098 168.331 23.6707 168.222 24.4906L165.738 23.8255C165.855 23.014 166.081 22.3238 166.415 21.7549C166.75 21.1861 167.185 20.7259 167.72 20.3746C168.256 20.0148 168.871 19.7513 169.565 19.584C170.268 19.4167 171.037 19.333 171.874 19.333C173.162 19.333 174.267 19.5129 175.187 19.8726C176.115 20.2324 176.827 20.818 177.32 21.6295C177.822 22.4326 178.073 23.516 178.073 24.8796V34.3414H175.94L175.726 32.4591C175.643 32.6682 175.471 32.8899 175.212 33.1241C174.961 33.3584 174.626 33.5801 174.208 33.7892C173.798 33.9984 173.304 34.1657 172.727 34.2912C172.15 34.4167 171.493 34.4794 170.757 34.4794ZM171.309 32.8481C171.87 32.8481 172.388 32.7937 172.865 32.6849C173.342 32.5762 173.765 32.4298 174.133 32.2457C174.501 32.0533 174.802 31.84 175.036 31.6057C175.279 31.3631 175.442 31.1121 175.526 30.8528L175.576 27.0631H171.246C170.837 27.0631 170.448 27.1007 170.079 27.176C169.711 27.2513 169.381 27.3893 169.088 27.5901C168.804 27.7909 168.578 28.0795 168.41 28.456C168.252 28.8325 168.172 29.3219 168.172 29.9242C168.172 30.5265 168.256 31.0201 168.423 31.405C168.59 31.7814 168.82 32.0742 169.113 32.2834C169.414 32.4925 169.753 32.6389 170.13 32.7226C170.506 32.8062 170.899 32.8481 171.309 32.8481ZM180.804 34.3414V19.4711H182.786L183.338 22.3573V34.3414H180.804ZM190.127 34.3414V25.8584C190.127 24.1267 189.868 22.9011 189.349 22.1816C188.839 21.4621 188.061 21.1024 187.015 21.1024C185.961 21.1024 185.07 21.4914 184.342 22.2694C183.623 23.0391 183.263 24.0095 183.263 25.1808L182.033 24.3902C182.033 23.1771 182.581 22.031 183.677 20.9518C184.782 19.8643 186.2 19.3205 187.931 19.3205C189.655 19.3205 190.872 19.9019 191.583 21.0648C192.302 22.2192 192.662 23.8088 192.662 25.8333V34.3414H190.127ZM201.517 34.5045C200.421 34.5045 199.505 34.2661 198.769 33.7892C198.033 33.3124 197.664 32.4214 197.664 31.1163V21.253H194.188V19.4711H197.664V16.108H200.212V19.4711H205.118V21.253H200.212V30.514C200.212 31.4259 200.396 32.0282 200.764 32.321C201.14 32.6138 201.676 32.7602 202.37 32.7602C202.981 32.7602 203.575 32.664 204.152 32.4716V34.1908C203.316 34.3999 202.437 34.5045 201.517 34.5045ZM213.139 34.4543C210.922 34.4543 209.274 33.8352 208.195 32.5971C207.124 31.3589 206.589 29.4473 206.589 26.8623C206.589 24.2772 207.124 22.374 208.195 21.1526C209.274 19.9312 210.922 19.3205 213.139 19.3205C215.356 19.3205 217 19.9312 218.071 21.1526C219.142 22.374 219.677 24.2772 219.677 26.8623C219.677 29.4473 219.142 31.3589 218.071 32.5971C217 33.8352 215.356 34.4543 213.139 34.4543ZM213.139 32.6975C214.302 32.6975 215.26 32.2917 216.013 31.4802C216.766 30.6604 217.142 29.1253 217.142 26.8748C217.142 24.6328 216.766 23.106 216.013 22.2945C215.26 21.4747 214.302 21.0648 213.139 21.0648C211.976 21.0648 211.018 21.4747 210.266 22.2945C209.513 23.106 209.136 24.6328 209.136 26.8748C209.136 29.1253 209.513 30.6604 210.266 31.4802C211.018 32.2917 211.976 32.6975 213.139 32.6975ZM228.225 34.4543C226.443 34.4543 225 34.1322 223.896 33.4881C222.791 32.8355 222.105 31.681 221.838 30.0246L224.084 29.2466C224.226 30.5014 224.653 31.405 225.364 31.9571C226.083 32.5009 227.05 32.7728 228.263 32.7728C229.409 32.7728 230.27 32.5678 230.848 32.1579C231.425 31.748 231.714 31.2167 231.714 30.5642C231.714 29.6188 231.27 28.983 230.383 28.6568C229.505 28.3305 228.405 28.021 227.083 27.7282C225.56 27.4019 224.322 26.9376 223.369 26.3352C222.423 25.7329 221.951 24.7206 221.951 23.2984C221.951 22.0101 222.473 21.0313 223.519 20.362C224.573 19.6844 226.012 19.3456 227.836 19.3456C229.643 19.3456 231.074 19.676 232.128 20.3369C233.182 20.9895 233.83 22.0812 234.073 23.6122L231.827 24.3776C231.684 23.2733 231.27 22.4409 230.584 21.8804C229.898 21.3116 228.97 21.0271 227.798 21.0271C226.669 21.0271 225.828 21.2321 225.276 21.642C224.732 22.0519 224.46 22.6041 224.46 23.2984C224.46 24.1601 224.874 24.7541 225.703 25.0804C226.539 25.3983 227.602 25.6994 228.89 25.9839C230.396 26.3018 231.659 26.7452 232.68 27.3141C233.709 27.8746 234.223 28.8952 234.223 30.376C234.223 31.748 233.713 32.7728 232.692 33.4504C231.68 34.1197 230.191 34.4543 228.225 34.4543Z" fill="#E3E3E3"/>
<rect x="0.597561" y="0.597561" width="140.01" height="47.8049" stroke="white" stroke-width="1.19512"/>
<path d="M45.6889 65.7805L48.3063 58.0122H49.3699L51.9394 65.7805H50.9953L50.1826 63.3903H47.135L46.3224 65.7805H45.6889ZM47.3024 62.9003H50.0272L48.6767 58.7054L47.3024 62.9003ZM64.0862 58.0122H66.4525C67.568 58.0122 68.4324 58.3508 69.0459 59.0281C69.6674 59.6973 69.9781 60.6614 69.9781 61.9203C69.9781 63.1712 69.6714 64.1273 69.0579 64.7886C68.4523 65.4499 67.5839 65.7805 66.4525 65.7805H64.0862V58.0122ZM66.4645 65.2069C68.1536 65.2069 68.9981 64.1113 68.9981 61.9203C68.9981 59.6973 68.1496 58.5859 66.4525 58.5859H64.9945V65.2069H66.4645ZM83.8313 65.7805L81.2976 58.0122H82.2417L84.5005 65.1112L86.7952 58.0122H87.4644L84.883 65.7805H83.8313ZM102.143 65.9C101.45 65.9 100.852 65.7407 100.35 65.422C99.8563 65.1033 99.4778 64.6452 99.2149 64.0476C98.952 63.4421 98.8205 62.729 98.8205 61.9083C98.8205 61.0877 98.952 60.3786 99.2149 59.781C99.4778 59.1755 99.8563 58.7134 100.35 58.3947C100.852 58.068 101.45 57.9047 102.143 57.9047C102.836 57.9047 103.434 58.068 103.936 58.3947C104.438 58.7134 104.82 59.1755 105.083 59.781C105.354 60.3786 105.489 61.0877 105.489 61.9083C105.489 62.729 105.354 63.4421 105.083 64.0476C104.82 64.6452 104.438 65.1033 103.936 65.422C103.434 65.7407 102.836 65.9 102.143 65.9ZM102.143 65.3264C102.908 65.3264 103.493 65.0356 103.9 64.4539C104.314 63.8723 104.521 63.0238 104.521 61.9083C104.521 60.8008 104.314 59.9523 103.9 59.3627C103.493 58.7731 102.908 58.4783 102.143 58.4783C101.386 58.4783 100.804 58.7731 100.398 59.3627C99.9917 59.9523 99.7886 60.8008 99.7886 61.9083C99.7886 63.0238 99.9878 63.8723 100.386 64.4539C100.792 65.0356 101.378 65.3264 102.143 65.3264ZM120.587 65.9C119.575 65.9 118.791 65.5495 118.233 64.8483C117.675 64.1472 117.396 63.1712 117.396 61.9203C117.396 60.6534 117.699 59.6695 118.305 58.9683C118.91 58.2592 119.767 57.9047 120.874 57.9047C121.241 57.9047 121.591 57.9525 121.926 58.0481C122.268 58.1437 122.559 58.2512 122.798 58.3708C123.037 58.4903 123.157 58.554 123.157 58.562L123.049 59.1356C123.049 59.1277 122.934 59.0679 122.703 58.9564C122.472 58.8448 122.201 58.7412 121.89 58.6456C121.587 58.55 121.28 58.5022 120.97 58.5022C120.085 58.5022 119.428 58.7891 118.998 59.3627C118.575 59.9284 118.364 60.7809 118.364 61.9203C118.364 63.0357 118.571 63.8803 118.986 64.4539C119.4 65.0196 119.978 65.3025 120.719 65.3025C121.316 65.3025 121.75 65.1591 122.021 64.8722C122.292 64.5854 122.468 64.2986 122.547 64.0117V62.2549H120.958V61.741H123.312V65.7805H122.87L122.643 64.932C122.452 65.2108 122.189 65.4419 121.854 65.6252C121.519 65.8084 121.097 65.9 120.587 65.9ZM135.265 65.7805L137.882 58.0122H138.946L141.515 65.7805H140.571L139.758 63.3903H136.711L135.898 65.7805H135.265ZM136.878 62.9003H139.603L138.253 58.7054L136.878 62.9003ZM153.662 58.0122H156.028C157.144 58.0122 158.008 58.3508 158.622 59.0281C159.243 59.6973 159.554 60.6614 159.554 61.9203C159.554 63.1712 159.247 64.1273 158.634 64.7886C158.028 65.4499 157.16 65.7805 156.028 65.7805H153.662V58.0122ZM156.04 65.2069C157.729 65.2069 158.574 64.1113 158.574 61.9203C158.574 59.6973 157.725 58.5859 156.028 58.5859H154.57V65.2069H156.04ZM174.765 65.9C174.072 65.9 173.475 65.7407 172.973 65.422C172.479 65.1033 172.1 64.6452 171.837 64.0476C171.574 63.4421 171.443 62.729 171.443 61.9083C171.443 61.0877 171.574 60.3786 171.837 59.781C172.1 59.1755 172.479 58.7134 172.973 58.3947C173.475 58.068 174.072 57.9047 174.765 57.9047C175.458 57.9047 176.056 58.068 176.558 58.3947C177.06 58.7134 177.442 59.1755 177.705 59.781C177.976 60.3786 178.112 61.0877 178.112 61.9083C178.112 62.729 177.976 63.4421 177.705 64.0476C177.442 64.6452 177.06 65.1033 176.558 65.422C176.056 65.7407 175.458 65.9 174.765 65.9ZM174.765 65.3264C175.53 65.3264 176.116 65.0356 176.522 64.4539C176.936 63.8723 177.144 63.0238 177.144 61.9083C177.144 60.8008 176.936 59.9523 176.522 59.3627C176.116 58.7731 175.53 58.4783 174.765 58.4783C174.008 58.4783 173.427 58.7731 173.02 59.3627C172.614 59.9523 172.411 60.8008 172.411 61.9083C172.411 63.0238 172.61 63.8723 173.008 64.4539C173.415 65.0356 174 65.3264 174.765 65.3264ZM192.265 65.9C191.748 65.9 191.317 65.8243 190.975 65.673C190.632 65.5216 190.377 65.3622 190.21 65.1949C190.05 65.0196 189.971 64.916 189.971 64.8842L190.27 64.4181C190.27 64.442 190.345 64.5336 190.497 64.693C190.648 64.8443 190.867 64.9878 191.154 65.1232C191.449 65.2507 191.807 65.3144 192.23 65.3144C192.732 65.3144 193.126 65.171 193.413 64.8842C193.7 64.5894 193.843 64.2269 193.843 63.7966C193.843 63.5018 193.771 63.2548 193.628 63.0556C193.484 62.8565 193.305 62.6971 193.09 62.5776C192.883 62.4581 192.6 62.3226 192.242 62.1712C191.827 62.0039 191.493 61.8446 191.238 61.6932C190.983 61.5418 190.768 61.3347 190.592 61.0717C190.417 60.8008 190.329 60.4582 190.329 60.0439C190.329 59.3906 190.536 58.8727 190.951 58.4903C191.365 58.0999 191.919 57.9047 192.612 57.9047C192.955 57.9047 193.261 57.9565 193.532 58.06C193.811 58.1556 194.034 58.2632 194.202 58.3827C194.369 58.4943 194.452 58.558 194.452 58.5739L194.333 59.0998C194.333 59.0839 194.253 59.0201 194.094 58.9086C193.935 58.797 193.731 58.6934 193.484 58.5978C193.237 58.5022 192.963 58.4544 192.66 58.4544C192.214 58.4544 191.863 58.5779 191.608 58.8249C191.353 59.0719 191.226 59.4065 191.226 59.8288C191.226 60.1236 191.293 60.3706 191.429 60.5698C191.572 60.761 191.748 60.9164 191.955 61.0359C192.17 61.1554 192.453 61.2869 192.803 61.4303C193.226 61.6056 193.564 61.7729 193.819 61.9322C194.074 62.0836 194.289 62.2987 194.464 62.5776C194.648 62.8565 194.739 63.215 194.739 63.6532C194.739 64.0914 194.636 64.4818 194.429 64.8244C194.229 65.1591 193.943 65.422 193.568 65.6132C193.194 65.8044 192.759 65.9 192.265 65.9Z" fill="white"/>
</svg>
