<svg width="1433" height="403" viewBox="0 0 1433 403" fill="none" xmlns="http://www.w3.org/2000/svg">
<rect x="824.849" width="608.152" height="286.6" fill="white"/>
<path d="M62.0873 200.883V101.796H103.704C116.23 101.796 125.185 105.368 130.567 112.512C135.95 119.607 138.641 132.55 138.641 151.339C138.641 170.08 135.925 183.023 130.494 190.167C125.111 197.311 116.181 200.883 103.704 200.883H62.0873ZM76.987 190.46H99.7403C107.765 190.46 113.759 188.063 117.723 183.267C121.686 178.472 123.668 167.829 123.668 151.339C123.668 134.8 121.686 124.158 117.723 119.411C113.759 114.616 107.765 112.218 99.7403 112.218H76.987V190.46ZM187.956 201.617C174.451 201.617 164.738 197.702 158.817 189.873C152.848 181.995 149.863 171.108 149.863 157.211C149.863 142.483 152.921 131.449 159.038 124.109C165.105 116.72 174.671 113.026 187.736 113.026C201.192 113.026 210.832 116.72 216.655 124.109C222.429 131.498 225.316 142.458 225.316 156.991C225.316 158.704 225.218 160.294 225.022 161.762H162.634V152.514H210.342C209.951 141.847 208.018 134.311 204.544 129.907C200.532 125.21 194.929 122.861 187.736 122.861C180.739 122.861 175.087 125.332 170.781 130.274C166.426 135.265 164.249 144.244 164.249 157.211C164.249 169.493 166.353 178.301 170.561 183.634C174.72 189.066 180.519 191.782 187.956 191.782V201.617ZM187.956 191.782C192.213 191.782 195.932 191.072 199.113 189.653C202.293 188.234 204.764 185.812 206.526 182.387C208.189 178.961 209.437 175.096 210.269 170.79L223.627 174.386C222.796 180.356 220.887 185.42 217.902 189.58C214.869 193.788 210.954 196.846 206.159 198.754C201.364 200.663 195.296 201.617 187.956 201.617V191.782ZM242.07 200.883V85.6485H256.969V200.883H242.07ZM309.661 200.883V101.796H360.819C370.557 101.796 376.82 104.071 379.609 108.622C382.447 113.173 383.866 118.433 383.866 124.402C383.866 130.568 382.545 135.877 379.903 140.33C377.26 144.734 373.444 147.058 368.452 147.303C373.688 147.596 377.872 150.043 381.003 154.642C384.184 159.242 385.774 165.187 385.774 172.478C385.774 180.747 384.331 187.549 381.444 192.882C378.606 198.216 372.465 200.883 363.021 200.883H309.661ZM324.634 190.46H359.204C363.51 190.46 366.495 188.821 368.159 185.543C369.872 182.215 370.728 177.371 370.728 171.01C370.728 165.089 369.676 160.49 367.572 157.211C365.517 153.884 361.749 152.22 356.268 152.22H324.634V190.46ZM324.634 142.899H355.388C360.379 142.899 363.853 141.382 365.81 138.348C367.767 135.265 368.746 131.302 368.746 126.458C368.746 121.956 367.939 118.457 366.324 115.962C364.709 113.417 361.626 112.145 357.076 112.145H324.634V142.899ZM401.917 200.883V113.833H416.817V200.883H401.917ZM401.917 90.0524H416.817V103.191H401.917V90.0524ZM463.445 201.69C458.943 201.69 454.858 201.299 451.188 200.516C447.567 199.684 444.411 198.289 441.719 196.332C439.077 194.375 437.046 191.708 435.627 188.332C434.257 184.907 433.572 180.601 433.572 175.414C433.572 170.423 434.257 166.288 435.627 163.01C436.997 159.682 438.955 157.064 441.499 155.156C444.093 153.199 447.224 151.804 450.894 150.972C454.564 150.141 458.674 149.725 463.225 149.725H491.63V144.807C491.63 139.669 490.773 135.534 489.061 132.403C487.348 129.222 484.902 126.898 481.721 125.43C478.541 123.962 474.773 123.228 470.418 123.228C466.65 123.228 463.274 123.889 460.289 125.21C457.304 126.531 454.833 128.66 452.876 131.595C450.967 134.482 449.646 138.348 448.912 143.192L434.38 139.302C435.163 134.507 436.606 130.446 438.71 127.118C440.863 123.791 443.505 121.1 446.637 119.044C449.818 116.989 453.414 115.497 457.426 114.567C461.439 113.589 465.745 113.099 470.344 113.099C478.076 113.099 484.633 114.176 490.015 116.329C495.398 118.482 499.483 121.931 502.272 126.678C505.11 131.424 506.529 137.712 506.529 145.541V200.883H494.125L492.878 189.873C492.241 191.096 491.14 192.393 489.575 193.763C488.009 195.133 486.003 196.43 483.556 197.653C481.109 198.828 478.198 199.806 474.822 200.589C471.494 201.323 467.702 201.69 463.445 201.69ZM466.675 191.928C471.127 191.928 475.042 191.39 478.418 190.314C481.843 189.188 484.657 187.769 486.859 186.056C489.061 184.344 490.578 182.582 491.41 180.772V158.092H466.675C464.179 158.092 461.83 158.337 459.628 158.826C457.426 159.266 455.494 160.098 453.83 161.321C452.215 162.496 450.943 164.184 450.013 166.386C449.084 168.588 448.619 171.401 448.619 174.827C448.619 178.35 449.059 181.212 449.94 183.414C450.87 185.616 452.166 187.329 453.83 188.552C455.494 189.775 457.426 190.656 459.628 191.194C461.83 191.684 464.179 191.928 466.675 191.928ZM522.5 200.883V113.907H534.171L537.327 130.715V200.883H522.5ZM577.035 200.883V151.193C577.035 141.113 575.518 133.969 572.484 129.76C569.499 125.552 564.949 123.448 558.832 123.448C552.716 123.448 547.529 125.699 543.272 130.201C539.015 134.703 536.886 140.379 536.886 147.229L529.693 142.678C529.693 135.534 532.898 128.806 539.308 122.494C545.767 116.182 554.061 113.026 564.19 113.026C574.27 113.026 581.39 116.427 585.549 123.228C589.757 129.981 591.861 139.278 591.861 151.119V200.883H577.035ZM642.363 201.617C629.005 201.617 619.341 197.825 613.371 190.24C607.402 182.607 604.417 171.671 604.417 157.431C604.417 142.507 607.402 131.4 613.371 124.109C619.341 116.769 629.005 113.099 642.363 113.099C654.596 113.099 663.306 116.231 668.493 122.494C673.68 128.757 676.518 135.706 677.007 143.339L663.722 147.743C663.526 140.452 661.594 134.605 657.924 130.201C654.254 125.748 649.067 123.522 642.363 123.522C635.513 123.522 629.984 125.993 625.775 130.935C621.616 135.877 619.537 144.709 619.537 157.431C619.537 169.371 621.641 177.983 625.849 183.267C630.106 188.552 635.611 191.194 642.363 191.194C649.018 191.194 654.18 188.821 657.85 184.075C661.569 179.279 663.526 173.677 663.722 167.267L677.007 171.817C676.518 178.619 673.655 185.298 668.419 191.855C663.233 198.363 654.547 201.617 642.363 201.617ZM727.83 201.47C714.863 201.47 705.248 197.874 698.985 190.681C692.722 183.439 689.59 172.258 689.59 157.138C689.59 142.018 692.722 130.886 698.985 123.742C705.248 116.549 714.863 112.952 727.83 112.952C740.846 112.952 750.461 116.549 756.676 123.742C762.939 130.886 766.07 142.018 766.07 157.138C766.07 172.258 762.939 183.439 756.676 190.681C750.461 197.874 740.846 201.47 727.83 201.47ZM727.83 191.268C734.632 191.268 740.234 188.895 744.638 184.148C749.042 179.353 751.244 170.374 751.244 157.211C751.244 144.049 749.042 135.094 744.638 130.348C740.234 125.601 734.632 123.228 727.83 123.228C721.029 123.228 715.426 125.601 711.022 130.348C706.618 135.094 704.416 144.049 704.416 157.211C704.416 170.374 706.618 179.353 711.022 184.148C715.426 188.895 721.029 191.268 727.83 191.268Z" fill="white"/>
<path d="M917.158 201.47C902.43 201.47 892.276 198.559 886.698 192.736C881.169 186.864 878.404 177.322 878.404 164.111H893.451C893.451 175.365 895.457 182.68 899.469 186.056C903.482 189.433 909.329 191.121 917.011 191.121C924.694 191.121 930.566 189.726 934.627 186.937C938.688 184.099 940.719 180.258 940.719 175.414C940.719 169.493 938.223 165.358 933.232 163.01C928.29 160.612 921.293 158.337 912.241 156.184C900.154 153.199 891.494 149.871 886.258 146.202C881.071 142.532 878.478 136.562 878.478 128.293C878.478 120.757 881.34 114.323 887.065 108.989C892.79 103.655 902.748 100.989 916.938 100.989C931.422 100.989 941.453 103.998 947.031 110.017C952.658 115.986 955.472 125.21 955.472 137.687H940.425C940.425 126.776 938.37 119.656 934.26 116.329C930.15 113.001 924.327 111.338 916.791 111.338C909.158 111.338 903.286 112.781 899.176 115.668C895.066 118.506 893.01 122.176 893.01 126.678C893.01 132.403 895.506 136.489 900.497 138.935C905.537 141.382 912.51 143.706 921.415 145.908C933.844 148.942 942.627 152.171 947.765 155.596C952.952 159.022 955.545 164.942 955.545 173.359C955.545 181.237 952.732 187.891 947.105 193.323C941.526 198.754 931.544 201.47 917.158 201.47ZM998.465 201.69C993.963 201.69 989.877 201.299 986.207 200.516C982.586 199.684 979.43 198.289 976.739 196.332C974.097 194.375 972.066 191.708 970.647 188.332C969.277 184.907 968.592 180.601 968.592 175.414C968.592 170.423 969.277 166.288 970.647 163.01C972.017 159.682 973.974 157.064 976.519 155.156C979.112 153.199 982.244 151.804 985.914 150.972C989.583 150.141 993.694 149.725 998.244 149.725H1026.65V144.807C1026.65 139.669 1025.79 135.534 1024.08 132.403C1022.37 129.222 1019.92 126.898 1016.74 125.43C1013.56 123.962 1009.79 123.228 1005.44 123.228C1001.67 123.228 998.293 123.889 995.308 125.21C992.324 126.531 989.853 128.66 987.895 131.595C985.987 134.482 984.666 138.348 983.932 143.192L969.399 139.302C970.182 134.507 971.625 130.446 973.73 127.118C975.883 123.791 978.525 121.1 981.656 119.044C984.837 116.989 988.434 115.497 992.446 114.567C996.458 113.589 1000.76 113.099 1005.36 113.099C1013.1 113.099 1019.65 114.176 1025.03 116.329C1030.42 118.482 1034.5 121.931 1037.29 126.678C1040.13 131.424 1041.55 137.712 1041.55 145.541V200.883H1029.14L1027.9 189.873C1027.26 191.096 1026.16 192.393 1024.59 193.763C1023.03 195.133 1021.02 196.43 1018.58 197.653C1016.13 198.828 1013.22 199.806 1009.84 200.589C1006.51 201.323 1002.72 201.69 998.465 201.69ZM1001.69 191.928C1006.15 191.928 1010.06 191.39 1013.44 190.314C1016.86 189.188 1019.68 187.769 1021.88 186.056C1024.08 184.344 1025.6 182.582 1026.43 180.772V158.092H1001.69C999.198 158.092 996.85 158.337 994.648 158.826C992.446 159.266 990.513 160.098 988.849 161.321C987.235 162.496 985.962 164.184 985.033 166.386C984.103 168.588 983.638 171.401 983.638 174.827C983.638 178.35 984.079 181.212 984.959 183.414C985.889 185.616 987.186 187.329 988.849 188.552C990.513 189.775 992.446 190.656 994.648 191.194C996.85 191.684 999.198 191.928 1001.69 191.928ZM1057.52 200.883V113.907H1069.19L1072.35 130.715V200.883H1057.52ZM1112.05 200.883V151.193C1112.05 141.113 1110.54 133.969 1107.5 129.76C1104.52 125.552 1099.97 123.448 1093.85 123.448C1087.74 123.448 1082.55 125.699 1078.29 130.201C1074.03 134.703 1071.91 140.379 1071.91 147.229L1064.71 142.678C1064.71 135.534 1067.92 128.806 1074.33 122.494C1080.79 116.182 1089.08 113.026 1099.21 113.026C1109.29 113.026 1116.41 116.427 1120.57 123.228C1124.78 129.981 1126.88 139.278 1126.88 151.119V200.883H1112.05ZM1178.82 201.837C1172.41 201.837 1167.05 200.442 1162.74 197.653C1158.44 194.815 1156.28 189.58 1156.28 181.946V124.329H1135.95V113.907H1156.28V94.236H1171.18V113.907H1199.95V124.329H1171.18V178.497C1171.18 183.83 1172.28 187.353 1174.48 189.066C1176.69 190.778 1179.79 191.635 1183.81 191.635C1187.38 191.635 1190.85 191.072 1194.23 189.947V200.002C1189.34 201.225 1184.2 201.837 1178.82 201.837ZM1246.79 201.47C1233.83 201.47 1224.21 197.874 1217.95 190.681C1211.69 183.439 1208.55 172.258 1208.55 157.138C1208.55 142.018 1211.69 130.886 1217.95 123.742C1224.21 116.549 1233.83 112.952 1246.79 112.952C1259.81 112.952 1269.42 116.549 1275.64 123.742C1281.9 130.886 1285.03 142.018 1285.03 157.138C1285.03 172.258 1281.9 183.439 1275.64 190.681C1269.42 197.874 1259.81 201.47 1246.79 201.47ZM1246.79 191.268C1253.6 191.268 1259.2 188.895 1263.6 184.148C1268.01 179.353 1270.21 170.374 1270.21 157.211C1270.21 144.049 1268.01 135.094 1263.6 130.348C1259.2 125.601 1253.6 123.228 1246.79 123.228C1239.99 123.228 1234.39 125.601 1229.99 130.348C1225.58 135.094 1223.38 144.049 1223.38 157.211C1223.38 170.374 1225.58 179.353 1229.99 184.148C1234.39 188.895 1239.99 191.268 1246.79 191.268ZM1335.1 201.47C1324.63 201.47 1316.17 199.586 1309.71 195.818C1303.25 192.051 1299.26 185.298 1297.74 175.561L1310.88 171.083C1311.71 178.423 1314.21 183.683 1318.37 186.864C1322.58 190.044 1328.23 191.635 1335.32 191.635C1342.03 191.635 1347.04 190.46 1350.37 188.112C1353.75 185.714 1355.44 182.582 1355.44 178.717C1355.44 173.187 1352.87 169.493 1347.73 167.634C1342.59 165.725 1336.13 163.915 1328.35 162.202C1319.49 160.294 1312.28 157.578 1306.7 154.055C1301.17 150.483 1298.41 144.562 1298.41 136.293C1298.41 128.757 1301.46 123.032 1307.58 119.118C1313.7 115.154 1322.09 113.173 1332.76 113.173C1343.37 113.173 1351.74 115.105 1357.86 118.971C1364.02 122.788 1367.81 129.149 1369.23 138.054L1356.1 142.532C1355.26 136.122 1352.84 131.253 1348.83 127.926C1344.87 124.598 1339.46 122.935 1332.61 122.935C1326 122.935 1321.09 124.133 1317.86 126.531C1314.67 128.929 1313.08 132.158 1313.08 136.219C1313.08 141.308 1315.51 144.783 1320.35 146.642C1325.24 148.501 1331.43 150.287 1338.92 152C1347.78 153.81 1355.19 156.379 1361.16 159.707C1367.18 162.985 1370.19 168.979 1370.19 177.689C1370.19 185.714 1367.2 191.684 1361.23 195.598C1355.26 199.513 1346.55 201.47 1335.1 201.47Z" fill="black"/>
<rect x="3.49513" y="3.49513" width="818.914" height="279.61" stroke="white" stroke-width="6.99025"/>
<path d="M267.237 384.562L282.545 339.125H288.767L303.796 384.562H298.273L293.52 370.581H275.695L270.941 384.562H267.237ZM276.674 367.715H292.611L284.712 343.179L276.674 367.715ZM374.842 339.125H388.682C395.207 339.125 400.263 341.105 403.851 345.067C407.486 348.981 409.304 354.62 409.304 361.983C409.304 369.299 407.51 374.892 403.921 378.76C400.379 382.628 395.3 384.562 388.682 384.562H374.842V339.125ZM388.752 381.206C398.632 381.206 403.572 374.798 403.572 361.983C403.572 348.981 398.609 342.48 388.682 342.48H380.154V381.206H388.752ZM490.331 384.562L475.511 339.125H481.033L494.245 380.647L507.666 339.125H511.581L496.482 384.562H490.331ZM597.435 385.261C593.381 385.261 589.886 384.329 586.95 382.464C584.061 380.6 581.847 377.921 580.309 374.426C578.771 370.884 578.002 366.713 578.002 361.913C578.002 357.113 578.771 352.966 580.309 349.47C581.847 345.929 584.061 343.226 586.95 341.362C589.886 339.451 593.381 338.496 597.435 338.496C601.49 338.496 604.985 339.451 607.921 341.362C610.857 343.226 613.094 345.929 614.631 349.47C616.216 352.966 617.008 357.113 617.008 361.913C617.008 366.713 616.216 370.884 614.631 374.426C613.094 377.921 610.857 380.6 607.921 382.464C604.985 384.329 601.49 385.261 597.435 385.261ZM597.435 381.905C601.909 381.905 605.334 380.204 607.711 376.802C610.134 373.4 611.346 368.437 611.346 361.913C611.346 355.435 610.134 350.472 607.711 347.024C605.334 343.575 601.909 341.851 597.435 341.851C593.008 341.851 589.606 343.575 587.23 347.024C584.853 350.472 583.665 355.435 583.665 361.913C583.665 368.437 584.83 373.4 587.16 376.802C589.536 380.204 592.962 381.905 597.435 381.905ZM705.316 385.261C699.397 385.261 694.807 383.21 691.545 379.109C688.283 375.008 686.652 369.299 686.652 361.983C686.652 354.573 688.423 348.818 691.964 344.717C695.506 340.57 700.516 338.496 706.993 338.496C709.137 338.496 711.188 338.775 713.145 339.335C715.149 339.894 716.85 340.523 718.248 341.222C719.646 341.921 720.345 342.294 720.345 342.34L719.716 345.696C719.716 345.649 719.04 345.3 717.688 344.647C716.337 343.995 714.753 343.389 712.935 342.83C711.164 342.271 709.37 341.991 707.553 341.991C702.38 341.991 698.535 343.669 696.019 347.024C693.549 350.333 692.314 355.319 692.314 361.983C692.314 368.507 693.525 373.447 695.949 376.802C698.372 380.111 701.751 381.765 706.085 381.765C709.58 381.765 712.12 380.927 713.704 379.249C715.288 377.571 716.314 375.894 716.78 374.216V363.94H707.483V360.934H721.253V384.562H718.667L717.339 379.598C716.221 381.23 714.683 382.581 712.725 383.653C710.768 384.725 708.298 385.261 705.316 385.261ZM791.164 384.562L806.473 339.125H812.694L827.723 384.562H822.201L817.447 370.581H799.622L794.869 384.562H791.164ZM800.601 367.715H816.539L808.64 343.179L800.601 367.715ZM898.769 339.125H912.61C919.134 339.125 924.19 341.105 927.779 345.067C931.414 348.981 933.231 354.62 933.231 361.983C933.231 369.299 931.437 374.892 927.849 378.76C924.307 382.628 919.227 384.562 912.61 384.562H898.769V339.125ZM912.68 381.206C922.559 381.206 927.499 374.798 927.499 361.983C927.499 348.981 922.536 342.48 912.61 342.48H904.082V381.206H912.68ZM1022.2 385.261C1018.15 385.261 1014.65 384.329 1011.72 382.464C1008.83 380.6 1006.61 377.921 1005.08 374.426C1003.54 370.884 1002.77 366.713 1002.77 361.913C1002.77 357.113 1003.54 352.966 1005.08 349.47C1006.61 345.929 1008.83 343.226 1011.72 341.362C1014.65 339.451 1018.15 338.496 1022.2 338.496C1026.26 338.496 1029.75 339.451 1032.69 341.362C1035.62 343.226 1037.86 345.929 1039.4 349.47C1040.98 352.966 1041.78 357.113 1041.78 361.913C1041.78 366.713 1040.98 370.884 1039.4 374.426C1037.86 377.921 1035.62 380.6 1032.69 382.464C1029.75 384.329 1026.26 385.261 1022.2 385.261ZM1022.2 381.905C1026.68 381.905 1030.1 380.204 1032.48 376.802C1034.9 373.4 1036.11 368.437 1036.11 361.913C1036.11 355.435 1034.9 350.472 1032.48 347.024C1030.1 343.575 1026.68 341.851 1022.2 341.851C1017.78 341.851 1014.37 343.575 1012 347.024C1009.62 350.472 1008.43 355.435 1008.43 361.913C1008.43 368.437 1009.6 373.4 1011.93 376.802C1014.3 380.204 1017.73 381.905 1022.2 381.905ZM1124.56 385.261C1121.53 385.261 1119.01 384.818 1117.01 383.932C1115.01 383.047 1113.52 382.115 1112.54 381.136C1111.61 380.111 1111.14 379.505 1111.14 379.319L1112.89 376.593C1112.89 376.732 1113.33 377.268 1114.21 378.2C1115.1 379.086 1116.38 379.925 1118.06 380.717C1119.78 381.463 1121.88 381.835 1124.35 381.835C1127.29 381.835 1129.59 380.996 1131.27 379.319C1132.95 377.595 1133.79 375.474 1133.79 372.958C1133.79 371.233 1133.37 369.789 1132.53 368.624C1131.69 367.459 1130.64 366.527 1129.38 365.828C1128.17 365.129 1126.52 364.336 1124.42 363.451C1122 362.472 1120.04 361.54 1118.55 360.655C1117.06 359.769 1115.8 358.558 1114.77 357.02C1113.75 355.435 1113.24 353.432 1113.24 351.008C1113.24 347.187 1114.45 344.158 1116.87 341.921C1119.29 339.638 1122.53 338.496 1126.59 338.496C1128.59 338.496 1130.39 338.799 1131.97 339.404C1133.6 339.964 1134.91 340.593 1135.88 341.292C1136.86 341.944 1137.35 342.317 1137.35 342.41L1136.65 345.486C1136.65 345.393 1136.19 345.02 1135.26 344.368C1134.32 343.715 1133.14 343.109 1131.69 342.55C1130.25 341.991 1128.64 341.711 1126.87 341.711C1124.26 341.711 1122.21 342.434 1120.72 343.878C1119.22 345.323 1118.48 347.28 1118.48 349.75C1118.48 351.474 1118.88 352.919 1119.67 354.084C1120.51 355.202 1121.53 356.111 1122.74 356.81C1124 357.509 1125.66 358.278 1127.71 359.117C1130.18 360.142 1132.16 361.121 1133.65 362.053C1135.14 362.938 1136.4 364.197 1137.42 365.828C1138.49 367.459 1139.03 369.556 1139.03 372.119C1139.03 374.682 1138.42 376.965 1137.21 378.969C1136.05 380.927 1134.37 382.464 1132.18 383.583C1129.99 384.701 1127.45 385.261 1124.56 385.261Z" fill="#F2F2F2"/>
</svg>
