<svg width="293" height="73" viewBox="0 0 293 73" fill="none" xmlns="http://www.w3.org/2000/svg">
<rect x="149.045" y="6.10352e-05" width="143.955" height="51.6203" fill="#333333"/>
<path d="M11.2453 36.1928V18.2463H18.7828C21.0428 18.2463 22.6602 18.8933 23.635 20.1872C24.6188 21.4723 25.1106 23.8164 25.1106 27.2196C25.1106 30.6139 24.6188 32.958 23.635 34.2519C22.6602 35.5459 21.0428 36.1928 18.7828 36.1928H11.2453ZM13.9439 34.3051H18.0517C19.514 34.3051 20.6041 33.8753 21.3219 33.0156C22.0398 32.1471 22.3987 30.2151 22.3987 27.2196C22.3987 24.2241 22.0398 22.2965 21.3219 21.4368C20.6041 20.5683 19.514 20.134 18.0517 20.134H13.9439V34.3051ZM34.0425 36.3257C31.5965 36.3257 29.8329 35.6168 28.7517 34.1988C27.6793 32.7808 27.1431 30.8089 27.1431 28.2831C27.1431 25.6243 27.6926 23.6303 28.7915 22.3009C29.8905 20.9627 31.6275 20.2936 34.0027 20.2936C36.4398 20.2936 38.1813 20.9627 39.2271 22.3009C40.2817 23.6303 40.809 25.611 40.809 28.2432C40.809 28.5534 40.7913 28.8414 40.7559 29.1073H29.4562V27.4323H38.2832L38.137 27.7247C38.137 25.6686 37.7736 24.2152 37.0469 23.3644C36.3202 22.5047 35.3054 22.0749 34.0027 22.0749C32.7353 22.0749 31.7073 22.5225 30.9185 23.4176C30.1386 24.3127 29.7487 25.9345 29.7487 28.2831C29.7487 30.5075 30.1253 32.1116 30.8786 33.0954C31.6408 34.0703 32.6954 34.5577 34.0425 34.5577V36.3257ZM34.0425 34.5577C34.8136 34.5577 35.4827 34.4292 36.0499 34.1722C36.6259 33.9063 37.0691 33.4632 37.3793 32.8428C37.6983 32.2224 37.9332 31.5267 38.0838 30.7557L40.5033 31.4071C40.3526 32.4883 40.0025 33.4056 39.4531 34.1589C38.9036 34.9122 38.1946 35.4617 37.3261 35.8073C36.4664 36.1529 35.3719 36.3257 34.0425 36.3257V34.5577ZM43.8176 36.1928V15.3217H46.5029V36.1928H43.8176ZM56.0336 36.1928V18.2463H65.2993C67.0629 18.2463 68.1973 18.6584 68.7025 19.4827C69.2077 20.3069 69.4602 21.264 69.4602 22.3541C69.4602 23.4708 69.2209 24.4279 68.7424 25.2255C68.2638 26.0231 67.5725 26.4441 66.6686 26.4884C67.6257 26.5416 68.3879 26.9847 68.9551 27.8178C69.5311 28.6509 69.8192 29.7321 69.8192 31.0614C69.8192 32.5592 69.5577 33.7911 69.0348 34.7571C68.5208 35.7142 67.4041 36.1928 65.6848 36.1928H56.0336ZM58.7455 34.3051H65.0068C65.7779 34.3051 66.3185 34.0082 66.6287 33.4144C66.9389 32.8118 67.094 31.9388 67.094 30.7956C67.094 29.7232 66.9034 28.8857 66.5223 28.2831C66.1412 27.6804 65.4588 27.3791 64.4751 27.3791H58.7455V34.3051ZM58.7455 25.6908H64.3156C65.2195 25.6908 65.8443 25.4161 66.19 24.8666C66.5445 24.3083 66.7217 23.5948 66.7217 22.7263C66.7217 21.9021 66.5755 21.264 66.283 20.812C65.9994 20.3512 65.4455 20.1207 64.6213 20.1207H58.7455V25.6908ZM72.717 36.1928V20.4265H75.4156V36.1928H72.717ZM72.717 16.1194H75.4156V18.5122H72.717V16.1194ZM83.914 36.339C83.3468 36.339 82.7929 36.2992 82.2523 36.2194C81.7205 36.1485 81.2242 36.0156 80.7634 35.8206C80.3025 35.6256 79.8949 35.3509 79.5404 34.9964C79.1947 34.633 78.9244 34.1722 78.7295 33.6138C78.5345 33.0555 78.437 32.3775 78.437 31.5799C78.437 30.8089 78.5345 30.153 78.7295 29.6124C78.9244 29.0718 79.1903 28.6287 79.5271 28.2831C79.8727 27.9286 80.2715 27.6538 80.7235 27.4589C81.1844 27.2639 81.6762 27.131 82.1991 27.0601C82.722 26.9803 83.2626 26.9404 83.8209 26.9404H88.9656V26.0497C88.9656 25.1014 88.8016 24.3437 88.4737 23.7765C88.1547 23.2005 87.7027 22.7839 87.1178 22.5269C86.5417 22.2699 85.8726 22.1414 85.1104 22.1414C84.4103 22.1414 83.7899 22.261 83.2493 22.5003C82.7087 22.7396 82.2656 23.1251 81.9199 23.6569C81.5743 24.1886 81.3439 24.8887 81.2287 25.7573L78.5965 25.0527C78.7206 24.193 78.9599 23.4619 79.3144 22.8592C79.6689 22.2566 80.1297 21.7692 80.6969 21.3969C81.2641 21.0159 81.9155 20.7367 82.6511 20.5594C83.3955 20.3822 84.2109 20.2936 85.0971 20.2936C86.4619 20.2936 87.6318 20.4841 88.6067 20.8652C89.5904 21.2463 90.3437 21.8667 90.8666 22.7263C91.3983 23.5771 91.6642 24.7248 91.6642 26.1694V36.1928H89.4043L89.1783 34.1988C89.0897 34.4203 88.908 34.6552 88.6332 34.9033C88.3674 35.1515 88.0129 35.3863 87.5698 35.6079C87.1355 35.8294 86.6126 36.0067 86.0011 36.1396C85.3896 36.2726 84.6939 36.339 83.914 36.339ZM84.4989 34.6109C85.0927 34.6109 85.6422 34.5533 86.1473 34.438C86.6525 34.3228 87.1 34.1677 87.49 33.9728C87.8799 33.7689 88.199 33.5429 88.4471 33.2948C88.7041 33.0378 88.877 32.7719 88.9656 32.4972L89.0188 28.4825H84.4324C83.9982 28.4825 83.5861 28.5224 83.1961 28.6021C82.8062 28.6819 82.4561 28.8281 82.1459 29.0408C81.8446 29.2535 81.6053 29.5593 81.4281 29.9581C81.2597 30.3569 81.1755 30.8753 81.1755 31.5134C81.1755 32.1515 81.2641 32.6744 81.4414 33.0821C81.6186 33.4809 81.8623 33.7911 82.1725 34.0126C82.4916 34.2342 82.8505 34.3893 83.2493 34.4779C83.6481 34.5665 84.0647 34.6109 84.4989 34.6109ZM94.5568 36.1928V20.4398H96.6572L97.2422 23.4973V36.1928H94.5568ZM104.434 36.1928V27.2063C104.434 25.3718 104.159 24.0734 103.61 23.3112C103.069 22.5491 102.245 22.168 101.137 22.168C100.021 22.168 99.0767 22.5801 98.3057 23.4043C97.5435 24.2196 97.1624 25.2477 97.1624 26.4884L95.8596 25.6509C95.8596 24.3659 96.4401 23.1517 97.6011 22.0085C98.7709 20.8563 100.273 20.2803 102.108 20.2803C103.933 20.2803 105.223 20.8962 105.976 22.1281C106.738 23.3511 107.119 25.035 107.119 27.1797V36.1928H104.434ZM116.24 36.3257C113.821 36.3257 112.07 35.6389 110.989 34.2652C109.908 32.8827 109.367 30.9064 109.367 28.3362C109.367 25.6243 109.908 23.6081 110.989 22.2876C112.07 20.9671 113.821 20.3069 116.24 20.3069C118.456 20.3069 120.029 20.8741 120.96 22.0085C121.899 23.134 122.413 24.388 122.502 25.7706L120.095 26.5682C120.06 25.2477 119.71 24.1886 119.045 23.391C118.389 22.5934 117.454 22.1946 116.24 22.1946C115 22.1946 113.998 22.6421 113.236 23.5372C112.483 24.4323 112.106 26.032 112.106 28.3362C112.106 30.4898 112.487 32.0496 113.249 33.0156C114.011 33.9728 115.008 34.4513 116.24 34.4513C117.446 34.4513 118.381 34.0215 119.045 33.1619C119.71 32.2933 120.06 31.2741 120.095 30.1043L122.502 30.9285C122.413 32.1604 121.899 33.3701 120.96 34.5577C120.02 35.7364 118.447 36.3257 116.24 36.3257ZM131.694 36.3125C129.345 36.3125 127.6 35.6566 126.456 34.345C125.322 33.0333 124.755 31.0083 124.755 28.2698C124.755 25.5313 125.322 23.5151 126.456 22.2212C127.6 20.9272 129.345 20.2803 131.694 20.2803C134.043 20.2803 135.784 20.9272 136.918 22.2212C138.053 23.5151 138.62 25.5313 138.62 28.2698C138.62 31.0083 138.053 33.0333 136.918 34.345C135.784 35.6566 134.043 36.3125 131.694 36.3125ZM131.694 34.4513C132.926 34.4513 133.941 34.0215 134.738 33.1619C135.536 32.2933 135.935 30.6671 135.935 28.2831C135.935 25.9079 135.536 24.2905 134.738 23.4309C133.941 22.5624 132.926 22.1281 131.694 22.1281C130.462 22.1281 129.447 22.5624 128.65 23.4309C127.852 24.2905 127.453 25.9079 127.453 28.2831C127.453 30.6671 127.852 32.2933 128.65 33.1619C129.447 34.0215 130.462 34.4513 131.694 34.4513Z" fill="#333333"/>
<path d="M159.613 36.268V18.3215H167.151C169.41 18.3215 171.028 18.9685 172.003 20.2624C172.986 21.5475 173.478 23.8916 173.478 27.2948C173.478 30.6891 172.986 33.0332 172.003 34.3271C171.028 35.621 169.41 36.268 167.151 36.268H159.613ZM162.312 34.3803H166.419C167.882 34.3803 168.972 33.9505 169.69 33.0908C170.407 32.2223 170.766 30.2903 170.766 27.2948C170.766 24.2993 170.407 22.3717 169.69 21.512C168.972 20.6435 167.882 20.2092 166.419 20.2092H162.312V34.3803ZM182.41 36.3876C180.062 36.3876 178.316 35.7318 177.173 34.4202C176.038 33.1085 175.471 31.0835 175.471 28.345C175.471 25.6065 176.038 23.5903 177.173 22.2963C178.316 21.0024 180.062 20.3555 182.41 20.3555C184.759 20.3555 186.5 21.0024 187.635 22.2963C188.769 23.5903 189.336 25.6065 189.336 28.345C189.336 31.0835 188.769 33.1085 187.635 34.4202C186.5 35.7318 184.759 36.3876 182.41 36.3876ZM182.41 34.5265C183.642 34.5265 184.657 34.0967 185.454 33.237C186.252 32.3685 186.651 30.7423 186.651 28.3583C186.651 25.9831 186.252 24.3657 185.454 23.5061C184.657 22.6376 183.642 22.2033 182.41 22.2033C181.178 22.2033 180.164 22.6376 179.366 23.5061C178.568 24.3657 178.17 25.9831 178.17 28.3583C178.17 30.7423 178.568 32.3685 179.366 33.237C180.164 34.0967 181.178 34.5265 182.41 34.5265ZM191.931 36.268V20.515H194.044L194.616 23.1338V36.268H191.931ZM200.744 36.268V26.8162C200.744 25.2741 200.527 24.1309 200.093 23.3864C199.659 22.6331 198.95 22.2565 197.966 22.2565C196.965 22.2565 196.154 22.6641 195.533 23.4795C194.913 24.2948 194.603 25.4292 194.603 26.8827L193.167 26.1781C193.167 24.636 193.712 23.2845 194.802 22.1235C195.901 20.9537 197.244 20.3688 198.83 20.3688C200.612 20.3688 201.821 20.967 202.459 22.1634C203.106 23.3598 203.43 24.8487 203.43 26.6301V36.268H200.744ZM209.518 36.268V26.8162C209.518 25.2741 209.306 24.1309 208.88 23.3864C208.464 22.6331 207.759 22.2565 206.767 22.2565C205.765 22.2565 204.954 22.6641 204.334 23.4795C203.713 24.2948 203.403 25.4292 203.403 26.8827L201.981 26.1781C201.981 24.6626 202.526 23.3155 203.616 22.1368C204.715 20.9581 206.053 20.3688 207.631 20.3688C209.412 20.3688 210.617 20.967 211.246 22.1634C211.885 23.351 212.204 24.8399 212.204 26.6301V36.268H209.518ZM215.502 36.268V20.5017H218.201V36.268H215.502ZM215.502 16.1945H218.201V18.5874H215.502V16.1945ZM221.608 36.268V20.515H223.708L224.293 23.5725V36.268H221.608ZM231.485 36.268V27.2815C231.485 25.4469 231.21 24.1486 230.661 23.3864C230.12 22.6243 229.296 22.2432 228.188 22.2432C227.072 22.2432 226.128 22.6553 225.357 23.4795C224.595 24.2948 224.213 25.3229 224.213 26.5636L222.911 25.7261C222.911 24.4411 223.491 23.2269 224.652 22.0836C225.822 20.9315 227.324 20.3555 229.159 20.3555C230.984 20.3555 232.274 20.9714 233.027 22.2033C233.789 23.4263 234.17 25.1102 234.17 27.2549V36.268H231.485ZM243.238 42.4363C241.51 42.4363 240.057 42.0463 238.878 41.2664C237.708 40.4954 237.052 39.1616 236.91 37.265H239.556C239.618 38.0981 239.804 38.7628 240.114 39.2591C240.433 39.7642 240.867 40.132 241.417 40.3625C241.975 40.5929 242.609 40.7081 243.318 40.7081C244.497 40.7081 245.44 40.389 246.149 39.751C246.858 39.1129 247.213 37.8854 247.213 36.0686V23.7321L247.904 20.515H249.912V35.816C249.912 37.4999 249.606 38.8248 248.994 39.7908C248.392 40.7657 247.621 41.4481 246.681 41.8381C245.751 42.2369 244.603 42.4363 243.238 42.4363ZM242.254 36.3744C240.367 36.3744 238.944 35.7097 237.987 34.3803C237.039 33.0509 236.565 31.0436 236.565 28.3583C236.565 25.6729 237.034 23.67 237.974 22.3495C238.922 21.029 240.34 20.3688 242.228 20.3688C243.956 20.3688 245.414 20.8119 246.601 21.6981C247.789 22.5844 248.383 23.4928 248.383 24.4233L247.226 25.7926C247.226 24.8798 246.823 24.06 246.017 23.3333C245.219 22.6065 244.257 22.2432 243.132 22.2432C241.953 22.2432 241.018 22.6774 240.327 23.546C239.636 24.4056 239.29 26.0141 239.29 28.3716C239.29 30.729 239.636 32.3419 240.327 33.2105C241.018 34.0701 241.953 34.4999 243.132 34.4999C244.257 34.4999 245.219 34.141 246.017 33.4232C246.823 32.6964 247.226 31.8722 247.226 30.9505L248.396 32.3863C248.396 33.3523 247.802 34.2607 246.615 35.1115C245.436 35.9534 243.983 36.3744 242.254 36.3744ZM259.42 36.3876C257.072 36.3876 255.326 35.7318 254.182 34.4202C253.048 33.1085 252.481 31.0835 252.481 28.345C252.481 25.6065 253.048 23.5903 254.182 22.2963C255.326 21.0024 257.072 20.3555 259.42 20.3555C261.769 20.3555 263.51 21.0024 264.645 22.2963C265.779 23.5903 266.346 25.6065 266.346 28.345C266.346 31.0835 265.779 33.1085 264.645 34.4202C263.51 35.7318 261.769 36.3876 259.42 36.3876ZM259.42 34.5265C260.652 34.5265 261.667 34.0967 262.464 33.237C263.262 32.3685 263.661 30.7423 263.661 28.3583C263.661 25.9831 263.262 24.3657 262.464 23.5061C261.667 22.6376 260.652 22.2033 259.42 22.2033C258.188 22.2033 257.173 22.6376 256.376 23.5061C255.578 24.3657 255.179 25.9831 255.179 28.3583C255.179 30.7423 255.578 32.3685 256.376 33.237C257.173 34.0967 258.188 34.5265 259.42 34.5265ZM275.401 36.3876C273.514 36.3876 271.985 36.0464 270.815 35.364C269.645 34.6728 268.918 33.4497 268.635 31.695L271.014 30.8708C271.165 32.2001 271.617 33.1573 272.37 33.7422C273.133 34.3183 274.156 34.6063 275.441 34.6063C276.655 34.6063 277.568 34.3892 278.18 33.9549C278.791 33.5206 279.097 32.9579 279.097 32.2666C279.097 31.2651 278.627 30.5916 277.688 30.246C276.757 29.9003 275.592 29.5724 274.192 29.2622C272.579 28.9166 271.267 28.4247 270.257 27.7866C269.255 27.1485 268.755 26.0762 268.755 24.5696C268.755 23.2047 269.308 22.1678 270.416 21.4588C271.533 20.741 273.057 20.3821 274.989 20.3821C276.904 20.3821 278.419 20.7321 279.536 21.4323C280.652 22.1235 281.339 23.2801 281.596 24.9019L279.217 25.7128C279.066 24.543 278.627 23.6612 277.901 23.0674C277.174 22.4647 276.19 22.1634 274.949 22.1634C273.753 22.1634 272.862 22.3805 272.277 22.8148C271.701 23.2491 271.413 23.834 271.413 24.5696C271.413 25.4824 271.852 26.1116 272.729 26.4573C273.616 26.794 274.741 27.1131 276.106 27.4144C277.701 27.7512 279.039 28.2209 280.121 28.8235C281.211 29.4173 281.756 30.4985 281.756 32.0672C281.756 33.5206 281.215 34.6063 280.134 35.3242C279.062 36.0332 277.484 36.3876 275.401 36.3876Z" fill="white"/>
<rect x="0.633032" y="0.633032" width="148.506" height="50.3543" stroke="#333333" stroke-width="1.26606"/>
<path d="M60.4247 70.0996C59.8761 70.0996 59.4203 70.0194 59.0573 69.859C58.6944 69.6986 58.4243 69.5298 58.247 69.3526C58.0782 69.1669 57.9938 69.0572 57.9938 69.0234L58.3104 68.5296C58.3104 68.555 58.3905 68.652 58.5509 68.8208C58.7113 68.9812 58.9434 69.1331 59.2472 69.2766C59.5595 69.4117 59.9394 69.4792 60.3867 69.4792C60.9184 69.4792 61.3362 69.3273 61.6401 69.0234C61.944 68.7111 62.0959 68.3271 62.0959 67.8713C62.0959 67.559 62.0199 67.2973 61.868 67.0863C61.7161 66.8753 61.5262 66.7065 61.2983 66.5799C61.0788 66.4533 60.7792 66.3098 60.3994 66.1494C59.9605 65.9722 59.606 65.8034 59.3359 65.643C59.0658 65.4827 58.8379 65.2632 58.6522 64.9847C58.4665 64.6977 58.3737 64.3348 58.3737 63.8959C58.3737 63.2037 58.5931 62.6551 59.032 62.25C59.4709 61.8364 60.0575 61.6296 60.7918 61.6296C61.1548 61.6296 61.4797 61.6845 61.7667 61.7942C62.0621 61.8955 62.2985 62.0094 62.4757 62.136C62.653 62.2542 62.7416 62.3217 62.7416 62.3386L62.615 62.8957C62.615 62.8788 62.5306 62.8113 62.3618 62.6931C62.193 62.5749 61.9777 62.4652 61.7161 62.3639C61.4544 62.2626 61.1632 62.212 60.8425 62.212C60.3698 62.212 59.9984 62.3428 59.7283 62.6045C59.4583 62.8661 59.3232 63.2206 59.3232 63.668C59.3232 63.9803 59.3949 64.2419 59.5384 64.4529C59.6904 64.6555 59.8761 64.8201 60.0955 64.9467C60.3234 65.0733 60.623 65.2126 60.9944 65.3645C61.4418 65.5502 61.8005 65.7274 62.0706 65.8962C62.3407 66.0566 62.5686 66.2845 62.7542 66.5799C62.9484 66.8753 63.0454 67.2551 63.0454 67.7194C63.0454 68.1836 62.9357 68.5972 62.7163 68.9601C62.5052 69.3146 62.2014 69.5931 61.8047 69.7957C61.408 69.9983 60.948 70.0996 60.4247 70.0996ZM69.4167 70.0996C68.6824 70.0996 68.0494 69.9308 67.5176 69.5931C66.9943 69.2555 66.5934 68.7702 66.3148 68.1372C66.0363 67.4957 65.897 66.7403 65.897 65.8709C65.897 65.0015 66.0363 64.2503 66.3148 63.6173C66.5934 62.9758 66.9943 62.4863 67.5176 62.1487C68.0494 61.8026 68.6824 61.6296 69.4167 61.6296C70.151 61.6296 70.7841 61.8026 71.3158 62.1487C71.8476 62.4863 72.2527 62.9758 72.5312 63.6173C72.8182 64.2503 72.9617 65.0015 72.9617 65.8709C72.9617 66.7403 72.8182 67.4957 72.5312 68.1372C72.2527 68.7702 71.8476 69.2555 71.3158 69.5931C70.7841 69.9308 70.151 70.0996 69.4167 70.0996ZM69.4167 69.4919C70.227 69.4919 70.8474 69.1838 71.2778 68.5676C71.7167 67.9515 71.9362 67.0526 71.9362 65.8709C71.9362 64.6977 71.7167 63.7988 71.2778 63.1742C70.8474 62.5496 70.227 62.2373 69.4167 62.2373C68.6149 62.2373 67.9987 62.5496 67.5683 63.1742C67.1378 63.7988 66.9226 64.6977 66.9226 65.8709C66.9226 67.0526 67.1336 67.9515 67.5556 68.5676C67.9861 69.1838 68.6064 69.4919 69.4167 69.4919ZM79.435 70.0996C78.2956 70.0996 77.4093 69.7324 76.7763 68.9981C76.1433 68.2553 75.8268 67.234 75.8268 65.9342C75.8268 65.0649 75.9702 64.3052 76.2572 63.6553C76.5526 63.0054 76.9662 62.5074 77.498 62.1613C78.0381 61.8068 78.6627 61.6296 79.3717 61.6296C79.76 61.6296 80.1314 61.6802 80.4859 61.7815C80.8488 61.8828 81.1569 61.9968 81.4101 62.1234C81.6633 62.25 81.7899 62.3175 81.7899 62.3259L81.676 62.9336C81.676 62.9252 81.5536 62.8619 81.3088 62.7437C81.064 62.6256 80.7771 62.5158 80.4479 62.4146C80.1272 62.3133 79.8022 62.2626 79.473 62.2626C78.6543 62.2626 78.0128 62.5749 77.5486 63.1995C77.0844 63.8157 76.8523 64.7188 76.8523 65.9089C76.8523 67.0821 77.0886 67.9684 77.5613 68.5676C78.0339 69.1669 78.6965 69.4665 79.549 69.4665C79.9963 69.4665 80.3888 69.3737 80.7264 69.188C81.064 69.0023 81.3299 68.804 81.524 68.593C81.7266 68.3819 81.8279 68.2596 81.8279 68.2258L82.1824 68.6309C82.1824 68.6731 82.0727 68.8208 81.8532 69.0741C81.6338 69.3188 81.3173 69.5509 80.9037 69.7704C80.4985 69.9898 80.009 70.0996 79.435 70.0996ZM85.2756 69.973V61.7435H86.2378V69.973H85.2756ZM90.2721 69.973V61.7435H94.7033V62.3513H91.2343V65.5164H94.4121V66.0988H91.2343V69.3653H94.9818V69.973H90.2721ZM98.3348 61.7435H100.842C102.023 61.7435 102.939 62.1023 103.589 62.8197C104.247 63.5287 104.577 64.55 104.577 65.8836C104.577 67.2087 104.252 68.2216 103.602 68.9221C102.96 69.6227 102.04 69.973 100.842 69.973H98.3348V61.7435ZM100.854 69.3653C102.644 69.3653 103.538 68.2047 103.538 65.8836C103.538 63.5287 102.639 62.3513 100.842 62.3513H99.297V69.3653H100.854ZM106.921 69.973L109.693 61.7435H110.82L113.542 69.973H112.542L111.681 67.4408H108.452L107.592 69.973H106.921ZM108.63 66.9217H111.516L110.086 62.4779L108.63 66.9217ZM116.661 61.7435H119.168C120.35 61.7435 121.265 62.1023 121.915 62.8197C122.574 63.5287 122.903 64.55 122.903 65.8836C122.903 67.2087 122.578 68.2216 121.928 68.9221C121.286 69.6227 120.366 69.973 119.168 69.973H116.661V61.7435ZM119.181 69.3653C120.97 69.3653 121.865 68.2047 121.865 65.8836C121.865 63.5287 120.966 62.3513 119.168 62.3513H117.623V69.3653H119.181ZM126.331 69.973V61.7435H130.762V62.3513H127.293V65.5164H130.471V66.0988H127.293V69.3653H131.041V69.973H126.331ZM138.995 61.7435H141.502C142.683 61.7435 143.599 62.1023 144.249 62.8197C144.907 63.5287 145.236 64.55 145.236 65.8836C145.236 67.2087 144.912 68.2216 144.262 68.9221C143.62 69.6227 142.7 69.973 141.502 69.973H138.995V61.7435ZM141.514 69.3653C143.304 69.3653 144.198 68.2047 144.198 65.8836C144.198 63.5287 143.299 62.3513 141.502 62.3513H139.957V69.3653H141.514ZM148.665 69.973V61.7435H153.096V62.3513H149.627V65.5164H152.805V66.0988H149.627V69.3653H153.375V69.973H148.665ZM160.43 69.973L163.202 61.7435H164.329L167.051 69.973H166.051L165.19 67.4408H161.961L161.101 69.973H160.43ZM162.139 66.9217H165.025L163.595 62.4779L162.139 66.9217ZM170.17 61.7435H172.677C173.859 61.7435 174.774 62.1023 175.424 62.8197C176.083 63.5287 176.412 64.55 176.412 65.8836C176.412 67.2087 176.087 68.2216 175.437 68.9221C174.795 69.6227 173.875 69.973 172.677 69.973H170.17V61.7435ZM172.69 69.3653C174.479 69.3653 175.374 68.2047 175.374 65.8836C175.374 63.5287 174.475 62.3513 172.677 62.3513H171.132V69.3653H172.69ZM181.339 69.973L178.655 61.7435H179.655L182.048 69.264L184.478 61.7435H185.187L182.453 69.973H181.339ZM190.989 70.0996C190.254 70.0996 189.621 69.9308 189.089 69.5931C188.566 69.2555 188.165 68.7702 187.887 68.1372C187.608 67.4957 187.469 66.7403 187.469 65.8709C187.469 65.0015 187.608 64.2503 187.887 63.6173C188.165 62.9758 188.566 62.4863 189.089 62.1487C189.621 61.8026 190.254 61.6296 190.989 61.6296C191.723 61.6296 192.356 61.8026 192.888 62.1487C193.419 62.4863 193.825 62.9758 194.103 63.6173C194.39 64.2503 194.534 65.0015 194.534 65.8709C194.534 66.7403 194.39 67.4957 194.103 68.1372C193.825 68.7702 193.419 69.2555 192.888 69.5931C192.356 69.9308 191.723 70.0996 190.989 70.0996ZM190.989 69.4919C191.799 69.4919 192.419 69.1838 192.85 68.5676C193.289 67.9515 193.508 67.0526 193.508 65.8709C193.508 64.6977 193.289 63.7988 192.85 63.1742C192.419 62.5496 191.799 62.2373 190.989 62.2373C190.187 62.2373 189.571 62.5496 189.14 63.1742C188.71 63.7988 188.494 64.6977 188.494 65.8709C188.494 67.0526 188.705 67.9515 189.127 68.5676C189.558 69.1838 190.178 69.4919 190.989 69.4919ZM201.007 70.0996C199.867 70.0996 198.981 69.7324 198.348 68.9981C197.715 68.2553 197.399 67.234 197.399 65.9342C197.399 65.0649 197.542 64.3052 197.829 63.6553C198.125 63.0054 198.538 62.5074 199.07 62.1613C199.61 61.8068 200.235 61.6296 200.944 61.6296C201.332 61.6296 201.703 61.6802 202.058 61.7815C202.421 61.8828 202.729 61.9968 202.982 62.1234C203.235 62.25 203.362 62.3175 203.362 62.3259L203.248 62.9336C203.248 62.9252 203.125 62.8619 202.881 62.7437C202.636 62.6256 202.349 62.5158 202.02 62.4146C201.699 62.3133 201.374 62.2626 201.045 62.2626C200.226 62.2626 199.585 62.5749 199.12 63.1995C198.656 63.8157 198.424 64.7188 198.424 65.9089C198.424 67.0821 198.66 67.9684 199.133 68.5676C199.606 69.1669 200.268 69.4665 201.121 69.4665C201.568 69.4665 201.961 69.3737 202.298 69.188C202.636 69.0023 202.902 68.804 203.096 68.593C203.298 68.3819 203.4 68.2596 203.4 68.2258L203.754 68.6309C203.754 68.6731 203.645 68.8208 203.425 69.0741C203.206 69.3188 202.889 69.5509 202.476 69.7704C202.07 69.9898 201.581 70.0996 201.007 70.0996ZM205.949 69.973L208.721 61.7435H209.848L212.57 69.973H211.57L210.709 67.4408H207.48L206.62 69.973H205.949ZM207.658 66.9217H210.544L209.114 62.4779L207.658 66.9217ZM218.332 70.0996C217.192 70.0996 216.306 69.7324 215.673 68.9981C215.04 68.2553 214.723 67.234 214.723 65.9342C214.723 65.0649 214.867 64.3052 215.154 63.6553C215.449 63.0054 215.863 62.5074 216.395 62.1613C216.935 61.8068 217.559 61.6296 218.268 61.6296C218.657 61.6296 219.028 61.6802 219.383 61.7815C219.746 61.8828 220.054 61.9968 220.307 62.1234C220.56 62.25 220.687 62.3175 220.687 62.3259L220.573 62.9336C220.573 62.9252 220.45 62.8619 220.206 62.7437C219.961 62.6256 219.674 62.5158 219.345 62.4146C219.024 62.3133 218.699 62.2626 218.37 62.2626C217.551 62.2626 216.91 62.5749 216.445 63.1995C215.981 63.8157 215.749 64.7188 215.749 65.9089C215.749 67.0821 215.985 67.9684 216.458 68.5676C216.931 69.1669 217.593 69.4665 218.446 69.4665C218.893 69.4665 219.286 69.3737 219.623 69.188C219.961 69.0023 220.227 68.804 220.421 68.593C220.623 68.3819 220.725 68.2596 220.725 68.2258L221.079 68.6309C221.079 68.6731 220.969 68.8208 220.75 69.0741C220.53 69.3188 220.214 69.5509 219.8 69.7704C219.395 69.9898 218.906 70.0996 218.332 70.0996ZM224.172 69.973V61.7435H225.134V69.973H224.172ZM228.27 69.973L231.043 61.7435H232.169L234.891 69.973H233.891L233.03 67.4408H229.802L228.941 69.973H228.27ZM229.979 66.9217H232.866L231.435 62.4779L229.979 66.9217Z" fill="#2A2A2A"/>
</svg>
